<?xml version="1.0" ?><!DOCTYPE svg  PUBLIC '-//W3C//DTD SVG 1.1//EN'  'http://www.w3.org/Graphics/SVG/1.1/DTD/svg11.dtd'><svg style="enable-background:new 0 0 500 500;" version="1.1" viewBox="0 0 500 500" xml:space="preserve" xmlns="http://www.w3.org/2000/svg" xmlns:xlink="http://www.w3.org/1999/xlink"><g id="checked-checklist-notepad"><g><polygon points="500,250 473.216,279.409 491.536,314.718 458.049,336.172 466.532,375.03 428.619,387.055     426.778,426.778 387.044,428.619 375.02,466.543 336.161,458.049 314.707,491.547 279.409,473.226 250,500 220.581,473.226     185.282,491.547 163.818,458.049 124.959,466.543 112.945,428.619 73.222,426.778 71.371,387.044 33.458,375.021 41.941,336.172     8.453,314.718 26.774,279.409 0,250 26.774,220.591 8.453,185.282 41.941,163.829 33.458,124.97 71.371,112.956 73.222,73.222     112.956,71.381 124.97,33.468 163.829,41.952 185.282,8.463 220.581,26.784 250,0 279.409,26.784 314.718,8.463 336.172,41.962     375.03,33.468 387.044,71.381 426.778,73.232 428.619,112.966 466.532,124.98 458.049,163.839 491.536,185.282 473.216,220.591       " style="fill:#9DD2D8;"/><g id="_x33_4"><polygon points="320.002,354.029 179.993,354.029 179.993,170.822 205.79,170.822 201.258,181.412      298.742,181.412 294.21,170.822 320.002,170.822    " style="fill:#F4F8F8;"/><path d="M325.592,157.862h-45.553c-9.913-6.724-8.799-20.844-8.799-20.844l-0.071,0.031     c0.041-0.57,0.178-1.099,0.178-1.678c0-11.78-9.557-21.332-21.336-21.332c-11.8,0-21.347,9.552-21.347,21.332     c0,0.58,0.137,1.108,0.173,1.678l-0.051-0.031c0,0,1.099,14.12-8.814,20.844h-45.573c-8.58,0-15.544,6.673-15.544,14.923v198.242     c0,8.261,6.963,14.934,15.544,14.934h151.194c8.591,0,15.554-6.673,15.554-14.934V172.785     C341.145,164.536,334.183,157.862,325.592,157.862z M249.995,118.108c9.354,0,16.957,7.568,16.957,16.947     c0,9.349-7.603,16.937-16.957,16.937c-9.359,0-16.942-7.588-16.942-16.937C233.053,125.677,240.636,118.108,249.995,118.108z      M320.002,354.029H179.993V170.822h25.797l-4.532,10.589h97.484l-4.532-10.589h25.792V354.029z M249.995,148.361     c7.35,0,13.32-5.972,13.32-13.306c0-7.355-5.971-13.316-13.32-13.316c-7.35,0-13.316,5.961-13.316,13.316     C236.679,142.39,242.645,148.361,249.995,148.361z M250.01,125.392c5.508,0,9.974,4.466,9.974,9.979     c0,5.523-4.466,9.989-9.974,9.989c-5.524,0-9.995-4.466-9.995-9.989C240.016,129.857,244.486,125.392,250.01,125.392z" style="fill:#484B4D;"/><g><g><rect height="5.198" style="fill:#484B4D;" width="66.331" x="237.345" y="226.415"/><rect height="5.198" style="fill:#484B4D;" width="66.331" x="237.345" y="253.606"/><rect height="5.209" style="fill:#484B4D;" width="66.331" x="237.345" y="280.797"/><rect height="5.198" style="fill:#484B4D;" width="66.331" x="237.345" y="307.988"/></g><g><polygon points="199.356,222.285 201.401,220.251 208.664,227.524 220.342,215.846 222.397,217.891        208.664,231.613      " style="fill:#FC6E51;"/><polygon points="199.356,249.486 201.401,247.452 208.664,254.725 220.342,243.047 222.397,245.082        208.664,258.805      " style="fill:#FC6E51;"/><polygon points="199.356,276.678 201.401,274.633 208.664,281.916 220.342,270.238 222.397,272.272        208.664,286.006      " style="fill:#FC6E51;"/><polygon points="199.356,303.869 201.401,301.834 208.664,309.117 220.342,297.43 222.397,299.484        208.664,313.197      " style="fill:#FC6E51;"/></g></g></g></g></g><g id="Layer_1"/></svg>