<?xml version="1.0"?>
<svg xmlns="http://www.w3.org/2000/svg" xmlns:xlink="http://www.w3.org/1999/xlink" version="1.1" id="Layer_1" x="0px" y="0px" viewBox="0 0 512 512" style="enable-background:new 0 0 512 512;" xml:space="preserve" width="512px" height="512px" class=""><g><path style="fill:#F1EFF6" d="M355.072,171.46v334.927H96.788V335.361c0-90.521,73.381-163.901,163.901-163.901H355.072z" data-original="#C8D0E2" class="" data-old_color="#E7E4ED"/><circle style="fill:#EDF3F9;" cx="230.587" cy="322.215" r="104.153" data-original="#EDF3F9"/><polygon points="224.988,486.63 338.003,486.63 338.003,437.555 323.233,437.555 323.233,471.861 224.988,471.861 " data-original="#000000" class=""/><rect x="183.67" y="471.857" width="18.543" height="14.769" data-original="#000000" class=""/><rect x="29.095" y="86.508" style="fill:#DBE0E6" width="325.977" height="419.879" data-original="#AEB9CC" class="" data-old_color="#D3D8DF"/><path style="fill:#F1EFF6" d="M355.072,167.492v338.895H99.643V331.248c0-90.44,73.316-163.756,163.756-163.756L355.072,167.492  L355.072,167.492z" data-original="#C8D0E2" class="" data-old_color="#E7E4ED"/><polygon style="fill:#FBCB99;" points="219.707,319.763 269.246,366.688 195.687,395.053 " data-original="#FBCB99"/><path style="fill:#F9915B" d="M464.201,174.077l-7.585,7.493l-22.996,22.722l-20.444,20.2l-118.44,117.023l-25.487,25.173  l-30.55-29.415l-21.71-20.89l188.218-187.061l7.382-7.33c7.148-7.098,16.494-10.653,25.851-10.653c2.076,0,4.162,0.172,6.217,0.527  c7.098,1.215,13.922,4.536,19.462,9.963c5.721,5.609,9.204,12.627,10.45,19.947C476.523,153.178,473.06,165.318,464.201,174.077z" data-original="#EF4C35" class="" data-old_color="#F88448"/><path style="fill:#FBA477" d="M413.177,224.492l-118.44,117.023c-3.118-9.114-1.043-19.604,6.217-26.863l84.326-84.317  C392.824,222.792,403.841,220.847,413.177,224.492z" data-original="#FF7061" class="" data-old_color="#FB9560"/><path style="fill:#F88448" d="M464.201,174.077l-7.585,7.493l-22.996,22.722l0,0c-17.107-17.107-44.842-17.106-61.948,0.001  L238.701,337.272l-21.71-20.89l188.217-187.061l7.382-7.33c7.148-7.098,16.494-10.653,25.851-10.653  c2.076,0,4.162,0.172,6.217,0.527l29.912,29.912C476.523,153.178,473.06,165.318,464.201,174.077z" data-original="#C62E1E" class="" data-old_color="#C62E1E"/><path style="fill:#E4E9EE" d="M464.197,174.079l-7.582,7.493l-0.67-0.679l-49.89-50.718l-0.847-0.857l7.385-7.326  c7.148-7.1,16.492-10.654,25.846-10.654c9.265,0,18.54,3.495,25.679,10.486C478.73,136.171,478.759,159.684,464.197,174.079z" data-original="#694B4B" class="" data-old_color="#F4F9FD"/><path style="fill:#DBE0E6" d="M455.946,180.893l-49.89-50.718c5.721-3.377,12.17-5.061,18.609-5.061  c9.265,0,18.54,3.495,25.679,10.496C462.779,147.819,464.65,166.675,455.946,180.893z" data-original="#563939" class="active-path" data-old_color="#DAD7E4"/><rect x="72.891" y="172.741" style="fill:#F76E27" width="60.918" height="60.918" data-original="#579E2E" class="" data-old_color="#F88448"/><path style="fill:#F88448" d="M133.809,195.819v37.839H95.98V214.53c0-10.334,8.377-18.711,18.711-18.711L133.809,195.819  L133.809,195.819z" data-original="#75BF4D" class="" data-old_color="#75BF4D"/><rect x="72.891" y="270.119" style="fill:#F76E27" width="60.918" height="60.918" data-original="#579E2E" class="" data-old_color="#F88448"/><path style="fill:#F88448" d="M133.809,293.196v37.839H95.98v-19.128c0-10.334,8.377-18.711,18.711-18.711H133.809z" data-original="#75BF4D" class="" data-old_color="#75BF4D"/><rect x="72.891" y="367.498" style="fill:#F76E27" width="60.918" height="60.918" data-original="#579E2E" class="" data-old_color="#F88448"/><path style="fill:#F88448" d="M133.809,390.573v37.839H95.98v-19.128c0-10.334,8.377-18.711,18.711-18.711H133.809z" data-original="#75BF4D" class="" data-old_color="#75BF4D"/><path style="fill:#DBE0E6" d="M294.479,45.488v86.055H99.643V45.488h64.148c0.67-20.293,17.319-36.549,37.78-36.549  s37.12,16.256,37.78,36.549C239.35,45.488,294.479,45.488,294.479,45.488z" data-original="#563939" class="active-path" data-old_color="#DAD7E4"/><path style="fill:#E4E9EE" d="M294.479,48.856v82.688H114.895l0,0c0-25.482,20.657-46.139,46.139-46.139h0.549  c8.89,0,16.952-5.288,20.418-13.475c5.742-13.562,19.167-23.073,34.821-23.073C237.282,48.856,294.479,48.856,294.479,48.856z" data-original="#694B4B" class="" data-old_color="#F4F9FD"/><polygon points="230.589,78.246 262.206,78.246 262.206,86.504 276.975,86.504 276.975,63.477 230.589,63.477 " data-original="#000000" class=""/><path d="M201.571,63.111c9.715,0,17.619-7.904,17.619-17.619s-7.904-17.619-17.619-17.619c-9.715,0-17.618,7.904-17.618,17.619  S191.857,63.111,201.571,63.111z M201.571,42.644c1.571,0,2.849,1.278,2.849,2.849s-1.278,2.849-2.849,2.849  s-2.848-1.278-2.848-2.849C198.723,43.921,200.001,42.644,201.571,42.644z" data-original="#000000" class=""/><path d="M68.539,238.01h69.62v-69.621h-69.62V238.01z M83.308,183.158h40.082v40.083H83.308V183.158z" data-original="#000000" class=""/><path d="M68.539,335.386h69.62v-69.62h-69.62V335.386z M83.308,280.535h40.082v40.082H83.308V280.535z" data-original="#000000" class=""/><path d="M68.539,432.762h69.62v-69.621h-69.62V432.762z M83.308,377.91h40.082v40.083H83.308V377.91z" data-original="#000000" class=""/><polygon points="308.934,210.584 308.934,203.199 308.934,195.814 169.825,195.814 169.825,203.199 169.825,210.584 " data-original="#000000" class=""/><polygon points="391.805,223.362 432.768,182.399 413.063,162.694 402.618,173.137 411.88,182.399 381.361,212.919 " data-original="#000000" class=""/><rect x="365.358" y="224.994" transform="matrix(0.7071 -0.7071 0.7071 0.7071 -55.2576 331.3541)" width="13.985" height="14.769" data-original="#000000" class=""/><path d="M474.17,119.301l-5.749-5.749c-15.873-15.871-41.699-15.871-57.572,0l-15.969,15.969l0,0l-31.508,31.508V76.804h-61.027  V38.108h-55.873c-1.517-9.344-5.907-17.957-12.732-24.784C225.147,4.732,213.724,0,201.571,0c-12.152,0-23.576,4.732-32.168,13.324  c-6.825,6.826-11.216,15.44-12.732,24.784H92.054v38.696H25.926V512h337.445V287.671l94.829-94.829l0,0l0.795-0.795l9.649-9.649l0,0  l5.526-5.526C490.042,161.001,490.042,135.174,474.17,119.301z M256.734,366.316l-50.213,14.885l14.885-50.213L256.734,366.316z   M270.731,359.426l-42.434-42.434l177.027-177.027l42.435,42.435L270.731,359.426z M170.848,45.492  c0-8.207,3.196-15.921,8.998-21.724c5.802-5.803,13.518-8.999,21.725-8.999c8.207,0,15.921,3.196,21.725,8.999  c5.802,5.803,8.998,13.517,8.998,21.724v7.385h55.28v69.001H106.823V52.877h64.026V45.492z M348.602,497.231H40.695V91.573h51.359  v45.074h210.291V91.573h46.258v84.226L231.21,293.191h-61.386v7.385v7.385h46.617l-5.136,5.136l-22.966,77.472h-18.515v7.385v7.385  h139.109v-7.385v-7.385H226.89l47.736-14.151l73.976-73.976V497.231z M463.726,166.43l-5.526,5.526l-42.435-42.435l5.526-5.525  c10.114-10.114,26.571-10.114,36.686,0l5.749,5.748C473.84,139.859,473.84,156.317,463.726,166.43z" data-original="#000000" class=""/></g> </svg>
