<svg width="103" height="103" viewBox="0 0 103 103" fill="none" xmlns="http://www.w3.org/2000/svg">
<circle cx="51.5" cy="51.5" r="51.5" fill="white"/>
<path d="M41.907 31.3431C41.8199 31.2344 41.7164 31.1481 41.6025 31.0892C41.4885 31.0303 41.3663 31 41.2429 31C41.1195 31 40.9974 31.0303 40.8834 31.0892C40.7695 31.1481 40.666 31.2344 40.5789 31.3431L35.6039 37.4978L33.8304 35.3474C33.7433 35.2387 33.6398 35.1524 33.5259 35.0935C33.4119 35.0346 33.2898 35.0043 33.1664 35.0043C33.043 35.0043 32.9208 35.0346 32.8068 35.0935C32.6929 35.1524 32.5894 35.2387 32.5023 35.3474L31.2757 36.8757C31.1883 36.984 31.119 37.1128 31.0717 37.2546C31.0244 37.3964 31 37.5485 31 37.702C31 37.8555 31.0244 38.0076 31.0717 38.1494C31.119 38.2912 31.1883 38.4199 31.2757 38.5283L34.9937 43.1363C35.1793 43.3559 35.4256 43.4783 35.6816 43.4783C35.9377 43.4783 36.1839 43.3559 36.3695 43.1363L37.5875 41.6178L43.2281 34.5998C43.4038 34.381 43.5031 34.0847 43.5045 33.7753C43.5058 33.4659 43.409 33.1683 43.2351 32.9472L41.907 31.3431ZM41.907 46.8189C41.8199 46.7101 41.7164 46.6238 41.6025 46.5649C41.4885 46.5061 41.3663 46.4758 41.2429 46.4758C41.1195 46.4758 40.9974 46.5061 40.8834 46.5649C40.7695 46.6238 40.666 46.7101 40.5789 46.8189L35.6039 53.0134L33.8304 50.865C33.7433 50.7562 33.6398 50.6699 33.5259 50.6111C33.4119 50.5522 33.2898 50.5219 33.1664 50.5219C33.043 50.5219 32.9208 50.5522 32.8068 50.6111C32.6929 50.6699 32.5894 50.7562 32.5023 50.865L31.2757 52.3903C31.1883 52.4987 31.119 52.6275 31.0717 52.7693C31.0244 52.9111 31 53.0631 31 53.2166C31 53.3702 31.0244 53.5222 31.0717 53.664C31.119 53.8058 31.1883 53.9346 31.2757 54.043L34.9843 58.6607C35.1698 58.8802 35.4159 59.0025 35.6718 59.0025C35.9278 59.0025 36.1739 58.8802 36.3593 58.6607L37.5859 57.1354L43.2265 50.1145C43.4016 49.8971 43.5006 49.6025 43.5019 49.2948C43.5032 48.9871 43.4068 48.6912 43.2336 48.4715L41.907 46.8189ZM36 63.6673C33.9304 63.6673 32.2039 65.7574 32.2039 68.3337C32.2039 70.9099 33.932 73 36 73C36.9945 73 37.9484 72.5084 38.6516 71.6333C39.3549 70.7581 39.75 69.5712 39.75 68.3337C39.75 67.0961 39.3549 65.9092 38.6516 65.034C37.9484 64.1589 36.9945 63.6673 36 63.6673ZM69.75 65.2228H47.25C46.9185 65.2228 46.6005 65.3866 46.3661 65.6783C46.1317 65.97 46 66.3657 46 66.7782V69.8891C46 70.3016 46.1317 70.6973 46.3661 70.989C46.6005 71.2807 46.9185 71.4445 47.25 71.4445H69.75C70.0815 71.4445 70.3995 71.2807 70.6339 70.989C70.8683 70.6973 71 70.3016 71 69.8891V66.7782C71 66.3657 70.8683 65.97 70.6339 65.6783C70.3995 65.3866 70.0815 65.2228 69.75 65.2228ZM69.75 34.1138H47.25C46.9185 34.1138 46.6005 34.2776 46.3661 34.5693C46.1317 34.861 46 35.2567 46 35.6692V38.7801C46 39.1926 46.1317 39.5883 46.3661 39.88C46.6005 40.1717 46.9185 40.3356 47.25 40.3356H69.75C70.0815 40.3356 70.3995 40.1717 70.6339 39.88C70.8683 39.5883 71 39.1926 71 38.7801V35.6692C71 35.2567 70.8683 34.861 70.6339 34.5693C70.3995 34.2776 70.0815 34.1138 69.75 34.1138ZM69.75 49.6683H47.25C46.9185 49.6683 46.6005 49.8321 46.3661 50.1238C46.1317 50.4155 46 50.8112 46 51.2237V54.3346C46 54.7471 46.1317 55.1428 46.3661 55.4345C46.6005 55.7262 46.9185 55.8901 47.25 55.8901H69.75C70.0815 55.8901 70.3995 55.7262 70.6339 55.4345C70.8683 55.1428 71 54.7471 71 54.3346V51.2237C71 50.8112 70.8683 50.4155 70.6339 50.1238C70.3995 49.8321 70.0815 49.6683 69.75 49.6683Z" fill="black"/>
</svg>
