<svg width="315" height="302" viewBox="0 0 315 302" fill="none" xmlns="http://www.w3.org/2000/svg">
<ellipse cx="157.5" cy="151" rx="157.5" ry="151" fill="white"/>
<path d="M109.172 73.3888C108.772 72.9486 108.295 72.5993 107.771 72.361C107.247 72.1227 106.685 72 106.118 72C105.55 72 104.988 72.1227 104.464 72.361C103.94 72.5993 103.463 72.9486 103.063 73.3888L80.1778 98.3008L72.02 89.5967C71.6193 89.1565 71.1433 88.8073 70.6191 88.5689C70.0949 88.3306 69.5329 88.2079 68.9653 88.2079C68.3977 88.2079 67.8357 88.3306 67.3115 88.5689C66.7873 88.8073 66.3112 89.1565 65.9106 89.5967L60.2684 95.7824C59.8664 96.2211 59.5474 96.7424 59.3297 97.3163C59.112 97.8903 59 98.5056 59 99.1271C59 99.7486 59.112 100.364 59.3297 100.938C59.5474 101.512 59.8664 102.033 60.2684 102.472L77.3711 121.123C78.2248 122.012 79.3576 122.507 80.5354 122.507C81.7132 122.507 82.846 122.012 83.6997 121.123L89.3023 114.977L115.249 86.5708C116.058 85.6849 116.514 84.4857 116.521 83.2334C116.527 81.9811 116.081 80.7766 115.282 79.8814L109.172 73.3888ZM109.172 136.029C108.772 135.589 108.295 135.239 107.771 135.001C107.247 134.763 106.685 134.64 106.118 134.64C105.55 134.64 104.988 134.763 104.464 135.001C103.94 135.239 103.463 135.589 103.063 136.029L80.1778 161.102L72.02 152.406C71.6193 151.966 71.1433 151.616 70.6191 151.378C70.0949 151.14 69.5329 151.017 68.9653 151.017C68.3977 151.017 67.8357 151.14 67.3115 151.378C66.7873 151.616 66.3112 151.966 65.9106 152.406L60.2684 158.58C59.8664 159.018 59.5474 159.54 59.3297 160.114C59.112 160.688 59 161.303 59 161.924C59 162.546 59.112 163.161 59.3297 163.735C59.5474 164.309 59.8664 164.83 60.2684 165.269L77.328 183.96C78.181 184.848 79.3132 185.344 80.4905 185.344C81.6677 185.344 82.7999 184.848 83.653 183.96L89.2952 177.786L115.242 149.368C116.047 148.488 116.503 147.296 116.509 146.05C116.515 144.805 116.071 143.607 115.274 142.718L109.172 136.029ZM81.9998 204.225C72.48 204.225 64.5378 212.685 64.5378 223.112C64.5378 233.54 72.4872 242 81.9998 242C86.5748 242 90.9624 240.01 94.1974 236.468C97.4324 232.926 99.2499 228.122 99.2499 223.112C99.2499 218.103 97.4324 213.299 94.1974 209.757C90.9624 206.215 86.5748 204.225 81.9998 204.225ZM237.25 210.521H133.75C132.225 210.521 130.762 211.184 129.684 212.365C128.606 213.545 128 215.147 128 216.817V229.408C128 231.078 128.606 232.679 129.684 233.86C130.762 235.041 132.225 235.704 133.75 235.704H237.25C238.775 235.704 240.238 235.041 241.316 233.86C242.394 232.679 243 231.078 243 229.408V216.817C243 215.147 242.394 213.545 241.316 212.365C240.238 211.184 238.775 210.521 237.25 210.521ZM237.25 84.6033H133.75C132.225 84.6033 130.762 85.2666 129.684 86.4473C128.606 87.6281 128 89.2294 128 90.8992V103.491C128 105.161 128.606 106.762 129.684 107.943C130.762 109.123 132.225 109.787 133.75 109.787H237.25C238.775 109.787 240.238 109.123 241.316 107.943C242.394 106.762 243 105.161 243 103.491V90.8992C243 89.2294 242.394 87.6281 241.316 86.4473C240.238 85.2666 238.775 84.6033 237.25 84.6033ZM237.25 147.562H133.75C132.225 147.562 130.762 148.225 129.684 149.406C128.606 150.587 128 152.188 128 153.858V166.45C128 168.119 128.606 169.721 129.684 170.901C130.762 172.082 132.225 172.745 133.75 172.745H237.25C238.775 172.745 240.238 172.082 241.316 170.901C242.394 169.721 243 168.119 243 166.45V153.858C243 152.188 242.394 150.587 241.316 149.406C240.238 148.225 238.775 147.562 237.25 147.562Z" fill="black"/>
</svg>
