<svg width="50" height="50" viewBox="0 0 50 50" fill="none" xmlns="http://www.w3.org/2000/svg">
<path d="M25 0C11.1929 0 0 11.1929 0 25C0 38.8091 11.1929 50 25 50C38.8071 50 50 38.8091 50 25C50 11.1929 38.8061 0 25 0ZM26.4335 10.1381C27.5675 8.80711 29.4853 7.8203 31.067 7.75634C31.269 9.6 30.5259 11.4487 29.4294 12.7787C28.3289 14.1076 26.5289 15.1421 24.7614 15.0051C24.5239 13.2 25.4142 11.3157 26.4335 10.1381ZM35.4355 35.3147C34.1228 37.2325 32.7624 39.1431 30.6193 39.1817C28.5117 39.2213 27.8335 37.933 25.4264 37.933C23.0173 37.933 22.264 39.1442 20.269 39.2223C18.201 39.2995 16.6254 37.1543 15.3025 35.2426C12.597 31.336 10.533 24.202 13.3086 19.3858C14.6832 16.9919 17.1462 15.4812 19.8173 15.4396C21.8518 15.402 23.7695 16.8102 25.0102 16.8102C26.2538 16.8102 28.5848 15.1188 31.0365 15.3685C32.0619 15.4102 34.9411 15.7807 36.7909 18.4863C36.6426 18.5797 33.3523 20.4934 33.3919 24.4782C33.4355 29.2386 37.5675 30.8193 37.6152 30.8437C37.5766 30.9513 36.9523 33.0985 35.4355 35.3147Z" fill="black"/>
</svg>
