<svg width="50" height="50" viewBox="0 0 50 50" fill="none" xmlns="http://www.w3.org/2000/svg">
<g clip-path="url(#clip0_27_9)">
<path d="M25 0C11.25 0 0 11.25 0 25C0 38.75 11.25 50 25 50C38.75 50 50 38.75 50 25C50 11.25 38.75 0 25 0ZM25 8.33333C29.5833 8.33333 33.3333 12.9167 33.3333 18.75C33.3333 24.5833 29.5833 29.1667 25 29.1667C20.4167 29.1667 16.6667 24.5833 16.6667 18.75C16.6667 12.9167 20.4167 8.33333 25 8.33333ZM38.75 40.625C35.2083 43.75 30.2083 45.8333 25 45.8333C19.7917 45.8333 14.7917 43.75 11.25 40.625C10.4167 39.7917 10.2083 38.5417 11.0417 37.7083C13.3333 35 16.4583 33.125 19.7917 32.0833C21.4583 32.9167 23.125 33.3333 25 33.3333C26.875 33.3333 28.5417 32.9167 30.2083 32.0833C33.75 33.125 36.6667 35 38.9583 37.7083C39.7917 38.5417 39.7917 39.7917 38.75 40.625Z" fill="#AFB3F8"/>
</g>
<defs>
<clipPath id="clip0_27_9">
<rect width="50" height="50" fill="white"/>
</clipPath>
</defs>
</svg>
