<svg width="46" height="42" viewBox="0 0 46 42" fill="none" xmlns="http://www.w3.org/2000/svg">
<path d="M23 13.1494C20.3191 13.1494 18.1456 15.1204 18.1456 17.5522V19.8941C18.1456 21.8089 19.8573 23.3612 21.9687 23.3612H24.0318C26.1432 23.3612 27.8549 21.8089 27.8549 19.8941V17.5518C27.8544 15.1204 25.6809 13.1494 23 13.1494Z" fill="#53C2BA"/>
<path d="M22.4944 15.5753V17.1448H19.2133C19.2133 17.1448 19.4377 15.5753 22.4944 15.5753Z" fill="white"/>
<path d="M23.5056 15.5753V17.1448H26.7867C26.7867 17.1448 26.5623 15.5753 23.5056 15.5753Z" fill="white"/>
<path d="M13.639 23.5452C15.0111 23.5452 16.1235 22.5364 16.1235 21.2919C16.1235 20.0474 15.0111 19.0386 13.639 19.0386C12.2669 19.0386 11.1545 20.0474 11.1545 21.2919C11.1545 22.5364 12.2669 23.5452 13.639 23.5452Z" fill="#FEE36F"/>
<path d="M13.639 22.2167C14.2022 22.2167 14.6588 21.8027 14.6588 21.2919C14.6588 20.7811 14.2022 20.3671 13.639 20.3671C13.0757 20.3671 12.6191 20.7811 12.6191 21.2919C12.6191 21.8027 13.0757 22.2167 13.639 22.2167Z" fill="white"/>
<path d="M32.361 23.5452C33.7331 23.5452 34.8454 22.5364 34.8454 21.2919C34.8454 20.0474 33.7331 19.0386 32.361 19.0386C30.9889 19.0386 29.8765 20.0474 29.8765 21.2919C29.8765 22.5364 30.9889 23.5452 32.361 23.5452Z" fill="#FEE36F"/>
<path d="M32.361 22.2167C32.9242 22.2167 33.3808 21.8027 33.3808 21.2919C33.3808 20.7811 32.9242 20.3671 32.361 20.3671C31.7978 20.3671 31.3412 20.7811 31.3412 21.2919C31.3412 21.8027 31.7978 22.2167 32.361 22.2167Z" fill="white"/>
<path d="M41.3885 16.6551C38.8263 17.9596 27.8543 18.2553 27.8543 18.2553V19.8941C27.8543 20.735 27.5241 21.5053 26.9753 22.1059C27.8254 22.0828 28.7113 22.0185 29.9547 21.8438C29.9055 21.667 29.8765 21.4826 29.8765 21.2919C29.8765 20.0474 30.9888 19.0386 32.361 19.0386C33.6131 19.0386 34.6462 19.8799 34.8174 20.9723C35.5777 20.8186 36.414 20.6443 37.3428 20.4464C45.5685 18.6934 43.9502 15.3506 41.3885 16.6551Z" fill="#53C2BA"/>
<path d="M13.639 19.0386C15.0112 19.0386 16.1234 20.0474 16.1234 21.2919C16.1234 21.4826 16.0945 21.667 16.0452 21.8438C17.2882 22.0185 18.1741 22.0828 19.0247 22.1059C18.4759 21.5057 18.1456 20.735 18.1456 19.8941V18.2553C18.1456 18.2553 7.17368 17.9596 4.61148 16.6551C2.04928 15.3506 0.431461 18.6934 8.65672 20.4464C9.58546 20.6443 10.4217 20.8186 11.1821 20.9723C11.3542 19.8794 12.3869 19.0386 13.639 19.0386Z" fill="#53C2BA"/>
<path d="M23 13.1494C23.4384 13.1494 23.8616 13.2069 24.2655 13.3056C24.1592 10.6743 23.6679 8.02829 23.3294 6.47219C23.2185 5.96357 22.7815 5.96357 22.6707 6.47219C22.3321 8.02829 21.8408 10.6743 21.7346 13.3056C22.1384 13.2069 22.5616 13.1494 23 13.1494Z" fill="#FEE36F"/>
<path d="M14.4394 13.6958C14.7881 14.0587 16.7086 14.4472 19.3609 14.645C20.2506 13.7298 21.5491 13.1494 23 13.1494H14.6588C14.6588 13.1494 13.9453 13.1817 14.4394 13.6958Z" fill="#53C2BA"/>
<path d="M31.3412 13.1494H23C24.4508 13.1494 25.7494 13.7298 26.6391 14.645C29.2914 14.4476 31.2119 14.0587 31.5606 13.6958C32.0546 13.1817 31.3412 13.1494 31.3412 13.1494Z" fill="#53C2BA"/>
<path d="M19.2133 17.3561H22.4944C22.6228 17.3561 22.7272 17.2616 22.7272 17.1452V15.5757C22.7272 15.4594 22.6232 15.3649 22.4944 15.3649C19.2708 15.3649 18.9929 17.0465 18.9828 17.1184C18.9741 17.1784 18.9948 17.2393 19.0385 17.2847C19.0826 17.3296 19.1461 17.3561 19.2133 17.3561ZM22.2617 15.7895V16.934H19.5311C19.728 16.5514 20.349 15.8428 22.2617 15.7895Z" fill="#136296"/>
<path d="M23.5055 17.3561H26.7867C26.8534 17.3561 26.9173 17.33 26.9615 17.2843C27.0057 17.2385 27.0259 17.178 27.0172 17.1179C27.007 17.0465 26.7292 15.3644 23.5055 15.3644C23.3772 15.3644 23.2728 15.4589 23.2728 15.5753V17.1448C23.2732 17.2616 23.3772 17.3561 23.5055 17.3561ZM23.7383 15.7895C25.6519 15.8428 26.2729 16.5522 26.4693 16.934H23.7383V15.7895Z" fill="#136296"/>
<path d="M13.639 20.1562C12.9485 20.1562 12.3868 20.6657 12.3868 21.2919C12.3868 21.9181 12.9485 22.4276 13.639 22.4276C14.3294 22.4276 14.8911 21.9181 14.8911 21.2919C14.8911 20.6657 14.3294 20.1562 13.639 20.1562ZM13.639 22.0055C13.2052 22.0055 12.8519 21.685 12.8519 21.2915C12.8519 20.8979 13.2052 20.5779 13.639 20.5779C14.0727 20.5779 14.426 20.8979 14.426 21.2915C14.426 21.6854 14.0732 22.0055 13.639 22.0055Z" fill="#136296"/>
<path d="M32.361 20.1562C31.6705 20.1562 31.1089 20.6657 31.1089 21.2919C31.1089 21.9181 31.6705 22.4276 32.361 22.4276C33.0515 22.4276 33.6131 21.9181 33.6131 21.2919C33.6131 20.6657 33.0515 20.1562 32.361 20.1562ZM32.361 22.0055C31.9272 22.0055 31.5739 21.685 31.5739 21.2915C31.5739 20.8979 31.9272 20.5779 32.361 20.5779C32.7948 20.5779 33.1481 20.8979 33.1481 21.2915C33.1481 21.6854 32.7948 22.0055 32.361 22.0055Z" fill="#136296"/>
<path d="M8.60364 20.6518C9.45372 20.8328 10.2228 20.9929 10.9308 21.1373C10.9271 21.1886 10.922 21.2398 10.922 21.2919C10.922 22.6506 12.141 23.756 13.6388 23.756C14.833 23.756 15.8477 23.0525 16.2111 22.0794C17.2112 22.2146 18.0396 22.286 18.921 22.3133C19.6648 23.0832 20.7536 23.5725 21.9685 23.5725H24.0316C25.2464 23.5725 26.3348 23.0832 27.0791 22.3133C27.9604 22.286 28.7889 22.2146 29.7889 22.0794C30.1523 23.0525 31.1666 23.756 32.3613 23.756C33.8595 23.756 35.078 22.6506 35.078 21.2919C35.078 21.2398 35.073 21.1886 35.0693 21.1373C35.7772 20.9933 36.5463 20.8333 37.3964 20.6518C42.789 19.5027 43.5623 17.8223 43.6708 17.3347C43.7596 16.9361 43.6198 16.5816 43.2881 16.3624C42.8046 16.0436 42.0332 16.0852 41.2747 16.4711C38.9977 17.6308 29.6997 17.984 28.0874 18.0369V17.5518C28.0874 16.5299 27.7185 15.5854 27.0966 14.8197C29.116 14.6475 31.2793 14.3098 31.7366 13.834C31.95 13.6118 32.0167 13.4102 31.9344 13.2342C31.8116 12.9717 31.4288 12.9415 31.3534 12.9381C31.3493 12.9381 31.3456 12.9377 31.3419 12.9377H24.4801C24.3494 10.4777 23.9115 8.05896 23.5573 6.43104C23.469 6.0249 23.2114 5.88 22.9998 5.88C22.7882 5.88 22.5306 6.0249 22.4423 6.43146C22.0881 8.05938 21.6497 10.4782 21.5195 12.9381L14.6471 12.9385C14.5717 12.9419 14.1894 12.9721 14.0661 13.2346C13.9838 13.4102 14.0505 13.6118 14.2639 13.8344C14.7212 14.3098 16.8846 14.6475 18.904 14.8201C18.2816 15.5854 17.9131 16.5304 17.9131 17.5522V18.0373C16.3004 17.9844 7.00284 17.6312 4.72584 16.4716C3.9673 16.0856 3.19634 16.0436 2.71242 16.3628C2.3803 16.582 2.24092 16.9365 2.3297 17.3351C2.4378 17.8223 3.21106 19.5027 8.60364 20.6518ZM13.6388 23.3339C12.3973 23.3339 11.3871 22.4175 11.3871 21.2915C11.3871 21.1932 11.3972 21.0974 11.4124 21.0025C11.4124 21.0021 11.4129 21.0021 11.4129 21.0017C11.5205 20.3158 12.0053 19.7459 12.6585 19.4557C12.6608 19.4548 12.6631 19.4536 12.6654 19.4527C12.7206 19.4284 12.7768 19.4065 12.8343 19.3864C12.8444 19.383 12.8545 19.3796 12.8642 19.3763C12.9152 19.3591 12.9672 19.3431 13.0201 19.3292C13.0399 19.3242 13.0597 19.32 13.0794 19.3154C13.125 19.3045 13.1701 19.2944 13.2165 19.2864C13.2501 19.2805 13.2846 19.2767 13.3186 19.2721C13.3536 19.2675 13.3876 19.262 13.4231 19.2587C13.4944 19.2524 13.5666 19.2486 13.6393 19.2486C14.8808 19.2486 15.891 20.165 15.891 21.2911C15.891 21.3709 15.885 21.4528 15.8735 21.5351C15.873 21.5389 15.8721 21.5426 15.8716 21.5468C15.8597 21.6275 15.8431 21.709 15.8201 21.7909C15.5731 22.6762 14.6904 23.3339 13.6388 23.3339ZM32.3608 23.3339C31.3092 23.3339 30.4265 22.6762 30.1799 21.7909C30.1574 21.709 30.1404 21.6275 30.1284 21.5468C30.128 21.5431 30.127 21.5393 30.1266 21.5351C30.1151 21.4528 30.1091 21.3713 30.1091 21.2911C30.1091 20.165 31.1193 19.2486 32.3608 19.2486C32.4339 19.2486 32.5062 19.2524 32.5775 19.2587C32.6124 19.2616 32.6469 19.2675 32.6819 19.2721C32.7159 19.2767 32.7504 19.2805 32.784 19.2864C32.8305 19.2944 32.876 19.3049 32.9211 19.3154C32.9409 19.32 32.9606 19.3242 32.9804 19.3292C33.0333 19.3431 33.0853 19.3591 33.1364 19.3763C33.1465 19.3796 33.1566 19.383 33.1663 19.3864C33.2238 19.4065 33.2799 19.4284 33.3351 19.4527C33.3374 19.4536 33.3397 19.4548 33.342 19.4557C33.9952 19.7459 34.48 20.3158 34.5877 21.0017C34.5877 21.0021 34.5881 21.0021 34.5881 21.0025C34.6028 21.097 34.6134 21.1932 34.6134 21.2915C34.6125 22.4179 33.6023 23.3339 32.3608 23.3339ZM41.5019 16.8391C42.2172 16.4749 42.7632 16.5383 43.0135 16.7034C43.1975 16.8248 43.2669 17.0142 43.214 17.2511C43.0277 18.0877 41.3644 19.3725 37.2892 20.2411C36.4557 20.4187 35.6967 20.5771 35.0003 20.719C34.7873 19.9126 34.1373 19.2604 33.2895 18.979C33.2748 18.9739 33.2601 18.9689 33.2449 18.9643C33.192 18.9475 33.1382 18.9328 33.0835 18.9189C33.054 18.9113 33.0241 18.9046 32.9947 18.8979C32.9491 18.8878 32.9031 18.8782 32.8567 18.8706C32.8121 18.863 32.7665 18.8576 32.7214 18.8517C32.686 18.8475 32.6506 18.842 32.6147 18.8391C32.5305 18.832 32.4459 18.8273 32.3603 18.8273C30.8621 18.8273 29.6436 19.9328 29.6436 21.2915C29.6436 21.362 29.6482 21.433 29.6555 21.5048C29.6592 21.5456 29.6657 21.5855 29.6716 21.6254C29.6739 21.6397 29.6749 21.6535 29.6772 21.6678C28.8593 21.7774 28.1596 21.8434 27.4462 21.8765C27.4995 21.8009 27.5492 21.7237 27.5961 21.6451L27.5966 21.6447C27.6513 21.5536 27.7001 21.4595 27.7456 21.3646C27.7617 21.331 27.7769 21.2969 27.7921 21.2629C27.8215 21.1961 27.8491 21.1281 27.874 21.0601C27.8873 21.0244 27.9011 20.9887 27.9135 20.9525C27.9453 20.8564 27.9733 20.7589 27.9968 20.6602C28.0041 20.6283 28.0097 20.5955 28.0161 20.5628C28.0322 20.4847 28.0455 20.4065 28.0557 20.3272C28.0603 20.2927 28.0644 20.2587 28.0681 20.2238C28.0791 20.1142 28.0865 20.0042 28.0865 19.8933V18.4586C29.7121 18.4086 39.0947 18.0646 41.5019 16.8391ZM31.4988 13.4001C31.4914 13.4219 31.4666 13.4723 31.3851 13.5572C31.1266 13.8264 29.4136 14.2191 26.7368 14.4257C26.2837 13.9805 25.735 13.6168 25.1209 13.3602H31.3336C31.3925 13.364 31.4666 13.3825 31.4988 13.4001ZM22.8986 6.51294C22.9322 6.35838 22.9938 6.30588 22.9915 6.30042C23.0062 6.30588 23.0674 6.35838 23.101 6.51294C23.3885 7.83384 23.8756 10.3736 24.0146 12.9381H22.9998H21.985C22.124 10.374 22.6111 7.83426 22.8986 6.51294ZM14.6145 13.5572C14.533 13.4723 14.5082 13.4219 14.5008 13.4001C14.534 13.382 14.6099 13.3631 14.6586 13.3602H20.8787C20.2646 13.6168 19.7159 13.9805 19.2628 14.4257C16.586 14.2191 14.873 13.826 14.6145 13.5572ZM18.3782 17.5518C18.3782 16.4388 18.8621 15.4283 19.6455 14.6769C19.7039 14.621 19.7637 14.5664 19.8249 14.5135C19.8709 14.474 19.9173 14.4358 19.9652 14.398C20.0305 14.3464 20.0972 14.2964 20.1653 14.2481C20.2173 14.2115 20.2697 14.1754 20.3235 14.1406C20.3842 14.1015 20.4454 14.0633 20.508 14.0267C20.5747 13.9877 20.6428 13.9503 20.7122 13.9142C20.7642 13.8873 20.8162 13.8608 20.8695 13.8356C20.9542 13.7953 21.0407 13.7579 21.1285 13.7222C21.1805 13.7012 21.2325 13.6815 21.2854 13.6622C21.3792 13.6282 21.4744 13.5958 21.571 13.5673C21.6166 13.5538 21.663 13.5416 21.709 13.5295C21.7445 13.5202 21.7803 13.5131 21.8162 13.5043C21.9708 13.4669 22.1249 13.4387 22.2785 13.4161C22.3319 13.4085 22.3852 13.3997 22.4391 13.3938C22.4989 13.3871 22.5582 13.382 22.6175 13.3774C22.7293 13.369 22.842 13.3627 22.9561 13.3619C22.9855 13.3615 23.0154 13.3615 23.0453 13.3619C23.1594 13.3627 23.2717 13.369 23.3839 13.3774C23.4432 13.382 23.503 13.3871 23.5624 13.3938C23.6167 13.3997 23.6696 13.4085 23.7229 13.4161C23.8766 13.4387 24.0307 13.4673 24.1852 13.5043C24.2206 13.5127 24.2565 13.5198 24.2919 13.529C24.3384 13.5412 24.3849 13.5534 24.4309 13.5673C24.5275 13.5958 24.6222 13.6277 24.7156 13.6618C24.7685 13.6811 24.8214 13.7012 24.8734 13.7222C24.9608 13.7575 25.0468 13.7953 25.1314 13.8352C25.1848 13.8604 25.2372 13.8873 25.2897 13.9146C25.3582 13.9503 25.4249 13.9873 25.4912 14.0259C25.5542 14.0629 25.6163 14.1011 25.6779 14.141C25.7313 14.1758 25.7842 14.2115 25.8357 14.2481C25.9038 14.296 25.97 14.3459 26.0353 14.3976C26.0832 14.4358 26.1306 14.4745 26.1766 14.5144C26.2364 14.5656 26.2948 14.6189 26.3518 14.6731C27.1375 15.4249 27.6228 16.4367 27.6228 17.5518V18.2549V19.4111C27.5676 19.472 27.4618 19.5833 27.3036 19.7219C27.2111 19.8026 27.2083 19.9361 27.2976 20.0201C27.3431 20.063 27.4038 20.0848 27.465 20.0848C27.5188 20.0848 27.5717 20.0663 27.6154 20.0323C27.6127 20.0886 27.6118 20.1453 27.6062 20.2012C27.6021 20.2419 27.5947 20.2822 27.5888 20.3225C27.58 20.3818 27.5713 20.441 27.5589 20.4989C27.5487 20.5468 27.5363 20.5943 27.5244 20.6413C27.5115 20.6913 27.4977 20.7413 27.482 20.7904C27.4669 20.8383 27.4503 20.8858 27.4328 20.9328C27.4144 20.9819 27.3946 21.0307 27.3739 21.079C27.3551 21.1222 27.3362 21.1655 27.3155 21.2079C27.2888 21.2629 27.2594 21.3167 27.2295 21.3696C27.2106 21.4028 27.1927 21.4368 27.1729 21.4696C27.1297 21.5401 27.0832 21.6086 27.0349 21.6754C27.0243 21.6896 27.0151 21.7048 27.0046 21.719C26.3583 22.5817 25.2676 23.1496 24.0334 23.1496H21.9703C20.7361 23.1496 19.6459 22.5817 18.9992 21.719C18.9886 21.7048 18.9794 21.6896 18.9688 21.6754C18.9201 21.6082 18.8741 21.5397 18.8308 21.4696C18.811 21.4368 18.7931 21.4032 18.7742 21.37C18.7443 21.3167 18.7149 21.2629 18.6878 21.2079C18.6671 21.1655 18.6482 21.1222 18.6298 21.0794C18.6091 21.0311 18.5889 20.9824 18.5705 20.9328C18.553 20.8858 18.5364 20.8383 18.5212 20.7904C18.5056 20.7413 18.4918 20.6913 18.4789 20.6413C18.4665 20.5939 18.4541 20.5468 18.4444 20.4989C18.4325 20.4406 18.4233 20.3818 18.4145 20.3225C18.4085 20.2822 18.4012 20.2419 18.397 20.2012C18.3915 20.1457 18.3901 20.089 18.3878 20.0323C18.4315 20.0663 18.4844 20.0848 18.5383 20.0848C18.599 20.0848 18.6602 20.0634 18.7057 20.0201C18.7949 19.9361 18.7922 19.803 18.6997 19.7219C18.5415 19.5833 18.4352 19.4725 18.3805 19.4111V18.2549V17.5518H18.3782ZM2.98612 16.7034C3.23636 16.5379 3.78238 16.4745 4.49768 16.8391C6.90486 18.0646 16.2879 18.4086 17.9131 18.4594V19.8941C17.9131 20.005 17.9205 20.1151 17.9315 20.2247C17.9347 20.2595 17.9393 20.2936 17.9439 20.328C17.9545 20.407 17.9679 20.4855 17.9835 20.5636C17.9899 20.596 17.9955 20.6287 18.0028 20.6611C18.0258 20.7598 18.0539 20.8572 18.0861 20.9534C18.098 20.9895 18.1123 21.0252 18.1256 21.0609C18.1509 21.1294 18.1781 21.197 18.2075 21.2638C18.2227 21.2978 18.2374 21.3318 18.254 21.3654C18.2995 21.4603 18.3483 21.5544 18.403 21.6455C18.403 21.6455 18.403 21.646 18.4035 21.646C18.4504 21.7245 18.5001 21.8018 18.5534 21.8774C17.84 21.8438 17.1408 21.7783 16.3224 21.6686C16.3247 21.6544 16.3257 21.6405 16.328 21.6262C16.3339 21.5863 16.3399 21.546 16.3441 21.5057C16.3514 21.4339 16.356 21.3629 16.356 21.2923C16.356 19.9336 15.137 18.8282 13.6393 18.8282C13.5537 18.8282 13.4686 18.8328 13.3849 18.8399C13.349 18.8429 13.314 18.8483 13.2782 18.8525C13.2326 18.858 13.1875 18.8639 13.1429 18.8714C13.0965 18.8794 13.0505 18.8891 13.0049 18.8987C12.975 18.9055 12.9456 18.9122 12.9161 18.9197C12.8619 18.9336 12.808 18.9483 12.7547 18.9651C12.74 18.9697 12.7252 18.9748 12.7101 18.9798C11.8627 19.2608 11.2123 19.913 10.9993 20.7194C10.3029 20.5775 9.54388 20.4191 8.71036 20.2415C4.63522 19.3729 2.97186 18.0881 2.78556 17.2515C2.73266 17.0142 2.80212 16.8248 2.98612 16.7034Z" fill="#136296"/>
<path d="M26.8069 20.3713C26.7366 20.2738 26.5926 20.2465 26.4849 20.3104C26.1942 20.4826 25.8837 20.6333 25.5622 20.7581C25.444 20.8039 25.3892 20.9278 25.4398 21.0349C25.4775 21.1151 25.5636 21.163 25.6537 21.163C25.6841 21.163 25.7154 21.1575 25.7448 21.1457C26.0916 21.0113 26.4265 20.8492 26.7393 20.6632C26.8474 20.5993 26.8773 20.4687 26.8069 20.3713Z" fill="#136296"/>
<path d="M20.4424 20.76C20.1199 20.6353 19.8094 20.4849 19.5196 20.3131C19.412 20.2493 19.268 20.277 19.1976 20.374C19.1273 20.4715 19.1576 20.6021 19.2648 20.6659C19.5776 20.8512 19.9125 21.0133 20.2598 21.1481C20.2897 21.1594 20.3205 21.1649 20.3509 21.1649C20.4415 21.1649 20.527 21.1166 20.5648 21.0364C20.6158 20.9297 20.5606 20.8058 20.4424 20.76Z" fill="#136296"/>
<path d="M24.5672 21.0554C24.2323 21.1277 23.8832 21.1764 23.529 21.2003C23.4011 21.2092 23.305 21.3104 23.3146 21.4263C23.3238 21.5372 23.4255 21.6216 23.5465 21.6216C23.5525 21.6216 23.558 21.6216 23.564 21.6212C23.9425 21.5956 24.3165 21.5435 24.6753 21.4658C24.8004 21.4389 24.8773 21.3251 24.8478 21.2117C24.8175 21.0983 24.6923 21.0277 24.5672 21.0554Z" fill="#136296"/>
<path d="M22.476 21.2008C22.1223 21.1772 21.7732 21.1285 21.4378 21.0563C21.3132 21.0294 21.1876 21.0995 21.1577 21.2129C21.1282 21.3263 21.2055 21.4402 21.3302 21.467C21.6894 21.5443 22.0634 21.5964 22.4415 21.6216C22.4475 21.622 22.453 21.622 22.459 21.622C22.5795 21.622 22.6817 21.5376 22.6909 21.4267C22.7005 21.3104 22.6044 21.2092 22.476 21.2008Z" fill="#136296"/>
<path d="M2.53275 31.0313H43.4677C43.596 31.0313 43.7004 30.9368 43.7004 30.8204C43.7004 30.7041 43.5965 30.6096 43.4677 30.6096H2.53275C2.40395 30.6096 2.29999 30.7041 2.29999 30.8204C2.29999 30.9368 2.40395 31.0313 2.53275 31.0313Z" fill="#136296"/>
<path d="M2.53275 32.5693H3.34695C3.47529 32.5693 3.57971 32.4748 3.57971 32.3585C3.57971 32.2421 3.47575 32.1476 3.34695 32.1476H2.53275C2.40395 32.1476 2.29999 32.2421 2.29999 32.3585C2.29999 32.4748 2.40395 32.5693 2.53275 32.5693Z" fill="#136296"/>
<path d="M19.0693 32.1476H17.497C17.3686 32.1476 17.2642 32.2421 17.2642 32.3585C17.2642 32.4748 17.3682 32.5693 17.497 32.5693H19.0693C19.1976 32.5693 19.302 32.4748 19.302 32.3585C19.302 32.2421 19.1976 32.1476 19.0693 32.1476Z" fill="#136296"/>
<path d="M12.7801 32.1476H11.2079C11.0795 32.1476 10.9751 32.2421 10.9751 32.3585C10.9751 32.4748 11.0791 32.5693 11.2079 32.5693H12.7801C12.9085 32.5693 13.0129 32.4748 13.0129 32.3585C13.0129 32.2421 12.9085 32.1476 12.7801 32.1476Z" fill="#136296"/>
<path d="M28.503 32.1476H26.9307C26.8024 32.1476 26.6979 32.2421 26.6979 32.3585C26.6979 32.4748 26.8019 32.5693 26.9307 32.5693H28.503C28.6313 32.5693 28.7357 32.4748 28.7357 32.3585C28.7357 32.2421 28.6313 32.1476 28.503 32.1476Z" fill="#136296"/>
<path d="M37.9366 32.1476H36.3644C36.236 32.1476 36.1316 32.2421 36.1316 32.3585C36.1316 32.4748 36.2356 32.5693 36.3644 32.5693H37.9366C38.065 32.5693 38.1694 32.4748 38.1694 32.3585C38.1694 32.2421 38.065 32.1476 37.9366 32.1476Z" fill="#136296"/>
<path d="M41.0812 32.1476H39.5089C39.3806 32.1476 39.2762 32.2421 39.2762 32.3585C39.2762 32.4748 39.3801 32.5693 39.5089 32.5693H41.0812C41.2096 32.5693 41.314 32.4748 41.314 32.3585C41.314 32.2421 41.2096 32.1476 41.0812 32.1476Z" fill="#136296"/>
<path d="M15.9247 32.1476H14.3525C14.2241 32.1476 14.1197 32.2421 14.1197 32.3585C14.1197 32.4748 14.2237 32.5693 14.3525 32.5693H15.9247C16.0531 32.5693 16.1575 32.4748 16.1575 32.3585C16.1575 32.2421 16.0531 32.1476 15.9247 32.1476Z" fill="#136296"/>
<path d="M33.2198 32.1476C33.0915 32.1476 32.9871 32.2421 32.9871 32.3585C32.9871 32.4748 33.091 32.5693 33.2198 32.5693H34.7921C34.9204 32.5693 35.0249 32.4748 35.0249 32.3585C35.0249 32.2421 34.9209 32.1476 34.7921 32.1476H33.2198Z" fill="#136296"/>
<path d="M23.7861 32.1476C23.6578 32.1476 23.5533 32.2421 23.5533 32.3585C23.5533 32.4748 23.6573 32.5693 23.7861 32.5693H25.3584C25.4867 32.5693 25.5911 32.4748 25.5911 32.3585C25.5911 32.2421 25.4872 32.1476 25.3584 32.1476H23.7861Z" fill="#136296"/>
<path d="M31.6475 32.1476H30.0752C29.9469 32.1476 29.8425 32.2421 29.8425 32.3585C29.8425 32.4748 29.9464 32.5693 30.0752 32.5693H31.6475C31.7758 32.5693 31.8803 32.4748 31.8803 32.3585C31.8803 32.2421 31.7758 32.1476 31.6475 32.1476Z" fill="#136296"/>
<path d="M9.63561 32.1476H8.06333C7.93499 32.1476 7.83057 32.2421 7.83057 32.3585C7.83057 32.4748 7.93453 32.5693 8.06333 32.5693H9.63561C9.76395 32.5693 9.86837 32.4748 9.86837 32.3585C9.86837 32.2421 9.76395 32.1476 9.63561 32.1476Z" fill="#136296"/>
<path d="M22.2139 32.1476H20.6416C20.5132 32.1476 20.4088 32.2421 20.4088 32.3585C20.4088 32.4748 20.5128 32.5693 20.6416 32.5693H22.2139C22.3422 32.5693 22.4466 32.4748 22.4466 32.3585C22.4466 32.2421 22.3422 32.1476 22.2139 32.1476Z" fill="#136296"/>
<path d="M6.49107 32.1476H4.91879C4.79045 32.1476 4.68604 32.2421 4.68604 32.3585C4.68604 32.4748 4.78999 32.5693 4.91879 32.5693H6.49107C6.61941 32.5693 6.72383 32.4748 6.72383 32.3585C6.72383 32.2421 6.61941 32.1476 6.49107 32.1476Z" fill="#136296"/>
<path d="M43.4672 32.1476H42.653C42.5247 32.1476 42.4203 32.2421 42.4203 32.3585C42.4203 32.4748 42.5242 32.5693 42.653 32.5693H43.4672C43.5956 32.5693 43.7 32.4748 43.7 32.3585C43.7 32.2421 43.596 32.1476 43.4672 32.1476Z" fill="#136296"/>
<path d="M3.69563 33.9746H2.53275C2.40395 33.9746 2.29999 34.0691 2.29999 34.1855C2.29999 34.3018 2.40395 34.3963 2.53275 34.3963H3.69563C3.82397 34.3963 3.92839 34.3018 3.92839 34.1855C3.92839 34.0691 3.82397 33.9746 3.69563 33.9746Z" fill="#136296"/>
<path d="M13.0125 34.1855C13.0125 34.0691 12.9085 33.9746 12.7797 33.9746H10.5087C10.3804 33.9746 10.2759 34.0691 10.2759 34.1855C10.2759 34.3018 10.3799 34.3963 10.5087 34.3963H12.7797C12.9085 34.3963 13.0125 34.3018 13.0125 34.1855Z" fill="#136296"/>
<path d="M26.4067 33.9746H24.1357C24.0074 33.9746 23.903 34.0691 23.903 34.1855C23.903 34.3018 24.0069 34.3963 24.1357 34.3963H26.4067C26.5351 34.3963 26.6395 34.3018 26.6395 34.1855C26.6395 34.0691 26.5351 33.9746 26.4067 33.9746Z" fill="#136296"/>
<path d="M22.097 34.1855C22.097 34.0691 21.9931 33.9746 21.8643 33.9746H19.5932C19.4649 33.9746 19.3605 34.0691 19.3605 34.1855C19.3605 34.3018 19.4644 34.3963 19.5932 34.3963H21.8643C21.9931 34.3963 22.097 34.3018 22.097 34.1855Z" fill="#136296"/>
<path d="M35.4913 33.9746H33.2202C33.0919 33.9746 32.9875 34.0691 32.9875 34.1855C32.9875 34.3018 33.0914 34.3963 33.2202 34.3963H35.4913C35.6196 34.3963 35.724 34.3018 35.724 34.1855C35.724 34.0691 35.6196 33.9746 35.4913 33.9746Z" fill="#136296"/>
<path d="M5.73389 34.1855C5.73389 34.3018 5.83785 34.3963 5.96665 34.3963H8.23767C8.36601 34.3963 8.47043 34.3018 8.47043 34.1855C8.47043 34.0691 8.36647 33.9746 8.23767 33.9746H5.96665C5.83831 33.9746 5.73389 34.0691 5.73389 34.1855Z" fill="#136296"/>
<path d="M14.8184 34.1855C14.8184 34.3018 14.9224 34.3963 15.0512 34.3963H17.3222C17.4505 34.3963 17.555 34.3018 17.555 34.1855C17.555 34.0691 17.451 33.9746 17.3222 33.9746H15.0512C14.9224 33.9746 14.8184 34.0691 14.8184 34.1855Z" fill="#136296"/>
<path d="M37.5295 34.1855C37.5295 34.3018 37.6335 34.3963 37.7623 34.3963H40.0333C40.1617 34.3963 40.2661 34.3018 40.2661 34.1855C40.2661 34.0691 40.1621 33.9746 40.0333 33.9746H37.7623C37.634 33.9746 37.5295 34.0691 37.5295 34.1855Z" fill="#136296"/>
<path d="M28.445 34.1855C28.445 34.3018 28.549 34.3963 28.6778 34.3963H30.9488C31.0771 34.3963 31.1815 34.3018 31.1815 34.1855C31.1815 34.0691 31.0776 33.9746 30.9488 33.9746H28.6778C28.5494 33.9746 28.445 34.0691 28.445 34.1855Z" fill="#136296"/>
<path d="M43.4672 33.9746H42.3044C42.176 33.9746 42.0716 34.0691 42.0716 34.1855C42.0716 34.3018 42.1756 34.3963 42.3044 34.3963H43.4672C43.5956 34.3963 43.7 34.3018 43.7 34.1855C43.7 34.0691 43.596 33.9746 43.4672 33.9746Z" fill="#136296"/>
<path d="M3.34649 35.6983H2.53229C2.40395 35.6983 2.29999 35.7928 2.29999 35.9092C2.29999 36.0255 2.40395 36.12 2.53275 36.12H3.34695C3.47529 36.12 3.57971 36.0255 3.57971 35.9092C3.57971 35.7928 3.47529 35.6983 3.34649 35.6983Z" fill="#136296"/>
<path d="M41.0812 35.6983H39.5089C39.3806 35.6983 39.2762 35.7928 39.2762 35.9092C39.2762 36.0255 39.3801 36.12 39.5089 36.12H41.0812C41.2096 36.12 41.314 36.0255 41.314 35.9092C41.314 35.7928 41.2096 35.6983 41.0812 35.6983Z" fill="#136296"/>
<path d="M31.6475 35.6983H30.0752C29.9469 35.6983 29.8425 35.7928 29.8425 35.9092C29.8425 36.0255 29.9469 36.12 30.0752 36.12H31.6475C31.7758 36.12 31.8803 36.0255 31.8803 35.9092C31.8803 35.7928 31.7758 35.6983 31.6475 35.6983Z" fill="#136296"/>
<path d="M34.7921 35.6983H33.2198C33.0915 35.6983 32.9871 35.7928 32.9871 35.9092C32.9871 36.0255 33.0915 36.12 33.2198 36.12H34.7921C34.9204 36.12 35.0249 36.0255 35.0249 35.9092C35.0249 35.7928 34.9204 35.6983 34.7921 35.6983Z" fill="#136296"/>
<path d="M37.9366 35.6983H36.3644C36.236 35.6983 36.1316 35.7928 36.1316 35.9092C36.1316 36.0255 36.236 36.12 36.3644 36.12H37.9366C38.065 36.12 38.1694 36.0255 38.1694 35.9092C38.1694 35.7928 38.065 35.6983 37.9366 35.6983Z" fill="#136296"/>
<path d="M15.9247 35.6983H14.3525C14.2241 35.6983 14.1197 35.7928 14.1197 35.9092C14.1197 36.0255 14.2241 36.12 14.3525 36.12H15.9247C16.0531 36.12 16.1575 36.0255 16.1575 35.9092C16.1575 35.7928 16.0531 35.6983 15.9247 35.6983Z" fill="#136296"/>
<path d="M12.7801 35.6983H11.2079C11.0795 35.6983 10.9751 35.7928 10.9751 35.9092C10.9751 36.0255 11.0795 36.12 11.2079 36.12H12.7801C12.9085 36.12 13.0129 36.0255 13.0129 35.9092C13.0129 35.7928 12.9085 35.6983 12.7801 35.6983Z" fill="#136296"/>
<path d="M28.503 35.6983H26.9307C26.8024 35.6983 26.6979 35.7928 26.6979 35.9092C26.6979 36.0255 26.8024 36.12 26.9307 36.12H28.503C28.6313 36.12 28.7357 36.0255 28.7357 35.9092C28.7357 35.7928 28.6313 35.6983 28.503 35.6983Z" fill="#136296"/>
<path d="M9.63561 35.6983H8.06333C7.93499 35.6983 7.83057 35.7928 7.83057 35.9092C7.83057 36.0255 7.93499 36.12 8.06333 36.12H9.63561C9.76395 36.12 9.86837 36.0255 9.86837 35.9092C9.86837 35.7928 9.76395 35.6983 9.63561 35.6983Z" fill="#136296"/>
<path d="M6.49107 35.6983H4.91879C4.79045 35.6983 4.68604 35.7928 4.68604 35.9092C4.68604 36.0255 4.79045 36.12 4.91879 36.12H6.49107C6.61941 36.12 6.72383 36.0255 6.72383 35.9092C6.72383 35.7928 6.61941 35.6983 6.49107 35.6983Z" fill="#136296"/>
<path d="M19.0693 35.6983H17.497C17.3686 35.6983 17.2642 35.7928 17.2642 35.9092C17.2642 36.0255 17.3686 36.12 17.497 36.12H19.0693C19.1976 36.12 19.302 36.0255 19.302 35.9092C19.302 35.7928 19.1976 35.6983 19.0693 35.6983Z" fill="#136296"/>
<path d="M22.2139 35.6983H20.6416C20.5132 35.6983 20.4088 35.7928 20.4088 35.9092C20.4088 36.0255 20.5132 36.12 20.6416 36.12H22.2139C22.3422 36.12 22.4466 36.0255 22.4466 35.9092C22.4466 35.7928 22.3422 35.6983 22.2139 35.6983Z" fill="#136296"/>
<path d="M25.3584 35.6983H23.7861C23.6578 35.6983 23.5533 35.7928 23.5533 35.9092C23.5533 36.0255 23.6578 36.12 23.7861 36.12H25.3584C25.4867 36.12 25.5911 36.0255 25.5911 35.9092C25.5911 35.7928 25.4867 35.6983 25.3584 35.6983Z" fill="#136296"/>
<path d="M43.4672 35.6983H42.653C42.5247 35.6983 42.4203 35.7928 42.4203 35.9092C42.4203 36.0255 42.5247 36.12 42.6535 36.12H43.4677C43.596 36.12 43.7 36.0255 43.7 35.9092C43.7 35.7928 43.596 35.6983 43.4672 35.6983Z" fill="#136296"/>
</svg>
