<svg width="15" height="23" viewBox="0 0 15 23" fill="none" xmlns="http://www.w3.org/2000/svg">
<path d="M2.82877 17.0253C0.764585 16.8465 0.0567814 13.8762 0.0567814 13.8762C0.0567814 13.8762 -0.843521 20.4293 4.52572 22.5821C3.93637 21.5832 3.96895 20.2926 4.58199 19.412C5.79325 17.6745 4.8811 16.6257 4.8811 16.6257C7.44282 17.4406 6.05979 19.4672 6.05979 19.4672C6.05979 19.4672 8.31943 19.0151 6.68467 16.4601C5.04991 13.9051 6.90086 12.8064 6.90086 12.8064C6.90086 12.8064 5.63925 14.3783 8.92358 16.9149L9.98972 21.0522C10.9907 20.9681 11.3372 19.5329 11.3372 19.5329C11.3372 19.5329 11.6186 21.6621 10.2918 23C11.9621 22.5742 13.1734 21.6384 13.9493 20.4766C15.3442 18.3895 15.3323 15.5717 14.0204 13.6712L13.9493 13.5687C13.4044 12.7617 13.0816 12.0283 12.9068 11.3738C12.3175 9.17634 13.4162 7.90937 13.4162 7.90937C10.8367 8.72423 10.1852 10.1358 10.197 11.3712C10.2089 12.6723 10.9581 13.7763 10.9581 13.7763C10.9581 13.7763 8.78142 13.3321 8.48527 11.3712C8.34904 10.4617 8.61558 9.22891 9.69061 7.55977C13.0845 2.28686 9.26711 0 9.26711 0C9.26711 0 11.8644 3.24891 5.05583 8.47451C3.69649 9.51543 2.79027 10.4854 2.20981 11.3659C-0.106103 14.8935 2.82877 17.0253 2.82877 17.0253Z" fill="#F44336"/>
</svg>
