<svg width="50" height="49" viewBox="0 0 50 49" fill="none" xmlns="http://www.w3.org/2000/svg">
<g clip-path="url(#clip0_27_53)">
<path d="M25 49C11.195 49 0 38.0289 0 24.5C0 10.9711 11.195 0 25 0C38.805 0 50 10.9711 50 24.5C50 38.0289 38.805 49 25 49Z" fill="#3B579D"/>
<path d="M31.5 49V30.0223H38L38.975 22.6282H31.5V17.9046C31.5 15.7633 32.105 14.3031 35.24 14.3031H39.235V7.693C38.545 7.6048 36.17 7.4039 33.41 7.4039C27.65 7.4039 23.705 10.8486 23.705 17.1794V22.6331H17.19V30.0272H23.705V49H31.5Z" fill="white"/>
</g>
<defs>
<clipPath id="clip0_27_53">
<rect width="50" height="49" fill="white"/>
</clipPath>
</defs>
</svg>
