<svg width="50" height="50" viewBox="0 0 50 50" fill="none" xmlns="http://www.w3.org/2000/svg">
<g clip-path="url(#clip0_27_59)">
<path d="M25 10.4167C28.3682 10.4167 31.4609 11.5698 33.9298 13.4876L41.5072 6.25852C37.1016 2.3749 31.3347 0 25 0C15.4008 0 7.07639 5.41649 2.88708 13.3539L11.313 20.0058C13.3541 14.4154 18.7031 10.4167 25 10.4167Z" fill="#F44336"/>
<path d="M49.7835 28.1288C49.9137 27.1046 50 26.0597 50 25C50 23.2128 49.8048 21.4725 49.4484 19.7917H25V30.2083H38.5129C37.4198 33.0495 35.4734 35.4537 32.9959 37.1239L41.453 43.8006C45.9362 39.8655 49.0041 34.3549 49.7835 28.1288Z" fill="#2196F3"/>
<path d="M10.4167 25C10.4167 23.2428 10.7435 21.5659 11.313 20.0058L2.88709 13.3539C1.05069 16.8334 0 20.792 0 25C0 29.1609 1.03137 33.0757 2.82962 36.527L11.2662 29.8665C10.7259 28.3426 10.4167 26.7092 10.4167 25Z" fill="#FFC107"/>
<path d="M25 39.5833C18.6551 39.5833 13.2717 35.524 11.2662 29.8665L2.82962 36.527C6.99845 44.5281 15.3538 50 25 50C31.3079 50 37.0599 47.6566 41.453 43.8006L32.9959 37.1239C30.7109 38.6644 27.9758 39.5833 25 39.5833Z" fill="#00B060"/>
<path opacity="0.1" d="M25 49.4792C17.6423 49.4792 11.0265 46.4434 6.34906 41.6069C10.9278 46.7454 17.576 50 25 50C32.3554 50 38.9484 46.8096 43.5169 41.7516C38.8533 46.5097 32.2877 49.4792 25 49.4792Z" fill="black"/>
<path opacity="0.1" d="M25 29.6875V30.2083H38.5129L38.7239 29.6875H25Z" fill="black"/>
<path d="M49.9884 25.3063C49.9901 25.2037 50 25.1029 50 25C50 24.9709 49.9954 24.9428 49.9953 24.9137C49.9939 25.0449 49.9873 25.1746 49.9884 25.3063Z" fill="#E6E6E6"/>
<path opacity="0.2" d="M25 19.7917V20.3125H49.5533C49.5205 20.1406 49.4846 19.9623 49.4484 19.7917H25Z" fill="white"/>
<path d="M49.4484 19.7917H25V30.2083H38.5129C36.4115 35.67 31.2024 39.5833 25 39.5833C16.9459 39.5833 10.4167 33.0541 10.4167 25C10.4167 16.9458 16.9459 10.4167 25 10.4167C27.9205 10.4167 30.6123 11.3139 32.8927 12.7931C33.2418 13.0199 33.6019 13.2329 33.9298 13.4876L41.5072 6.25852L41.3363 6.12704C36.952 2.32722 31.2574 0 25 0C11.1928 0 0 11.1928 0 25C0 38.807 11.1928 50 25 50C37.7452 50 48.2405 40.4558 49.7835 28.1288C49.9137 27.1046 50 26.0597 50 25C50 23.2128 49.8048 21.4725 49.4484 19.7917Z" fill="url(#paint0_linear_27_59)"/>
<path opacity="0.1" d="M32.8927 12.2723C30.6123 10.793 27.9205 9.89583 25 9.89583C16.9459 9.89583 10.4167 16.4249 10.4167 24.4792C10.4167 24.567 10.4178 24.6357 10.4194 24.7233C10.5599 16.7906 17.0338 10.4167 25 10.4167C27.9205 10.4167 30.6123 11.3139 32.8927 12.7931C33.2418 13.0199 33.6019 13.2329 33.9298 13.4876L41.5072 6.25851L33.9298 12.9668C33.6019 12.7121 33.2418 12.4991 32.8927 12.2723Z" fill="black"/>
<path opacity="0.2" d="M25 0.520833C31.198 0.520833 36.8394 2.80914 41.2069 6.545L41.5072 6.25852L41.278 6.0589C36.8937 2.25908 31.2574 0 25 0C11.1928 0 0 11.1928 0 25C0 25.0879 0.0122071 25.1727 0.0130971 25.2604C0.154241 11.5747 11.2807 0.520833 25 0.520833Z" fill="white"/>
</g>
<defs>
<linearGradient id="paint0_linear_27_59" x1="0" y1="25" x2="50" y2="25" gradientUnits="userSpaceOnUse">
<stop stop-color="white" stop-opacity="0.2"/>
<stop offset="1" stop-color="white" stop-opacity="0"/>
</linearGradient>
<clipPath id="clip0_27_59">
<rect width="50" height="50" fill="white"/>
</clipPath>
</defs>
</svg>
