<svg width="46" height="42" viewBox="0 0 46 42" fill="none" xmlns="http://www.w3.org/2000/svg">
<path d="M37.8851 2.31252H8.11438V39.6862H37.8851V2.31252Z" fill="#7C7FBD"/>
<path d="M27.0236 39.6862V32.1052C27.0236 30.085 25.2131 28.4319 23 28.4319C20.7869 28.4319 18.9764 30.085 18.9764 32.1052V39.6862H27.0236Z" fill="#6AC9CC"/>
<path d="M14.8281 4.49022H10.5712V8.37648H14.8281V4.49022Z" fill="#6AC9CC"/>
<path d="M21.6949 4.49022H17.4381V8.37648H21.6949V4.49022Z" fill="#6AC9CC"/>
<path d="M14.8281 10.2127H10.5712V14.099H14.8281V10.2127Z" fill="#6AC9CC"/>
<path d="M28.5618 10.2127H24.305V14.099H28.5618V10.2127Z" fill="#6AC9CC"/>
<path d="M14.8281 15.9352H10.5712V19.8215H14.8281V15.9352Z" fill="#6AC9CC"/>
<path d="M28.5618 15.9352H24.305V19.8215H28.5618V15.9352Z" fill="#6AC9CC"/>
<path d="M35.4287 4.49022H31.1719V8.37648H35.4287V4.49022Z" fill="#6AC9CC"/>
<path d="M35.4287 15.9352H31.1719V19.8215H35.4287V15.9352Z" fill="#6AC9CC"/>
<path d="M21.6949 15.9352H17.4381V19.8215H21.6949V15.9352Z" fill="#6AC9CC"/>
<path d="M14.8281 21.6581H10.5712V25.5444H14.8281V21.6581Z" fill="#6AC9CC"/>
<path d="M28.5618 21.6581H24.305V25.5444H28.5618V21.6581Z" fill="#6AC9CC"/>
<path d="M35.4287 21.6581H31.1719V25.5444H35.4287V21.6581Z" fill="#6AC9CC"/>
<path d="M28.5618 4.49022H24.305V8.37648H28.5618V4.49022Z" fill="#FEE36F"/>
<path d="M21.6949 10.2127H17.4381V14.099H21.6949V10.2127Z" fill="#FEE36F"/>
<path d="M35.4287 10.2127H31.1719V14.099H35.4287V10.2127Z" fill="#FEE36F"/>
<path d="M21.6949 21.6581H17.4381V25.5444H21.6949V21.6581Z" fill="#FEE36F"/>
<path d="M16.9919 28.4319H10.5712V39.6875H16.9919V28.4319Z" fill="#F1B57D"/>
<path d="M35.4292 28.4319H29.0085V39.6875H35.4292V28.4319Z" fill="#F1B57D"/>
<path d="M25.7016 39.6862V32.172C25.7016 30.8154 24.4858 29.7053 23 29.7053C21.5142 29.7053 20.2984 30.8154 20.2984 32.172V39.6862H25.7016Z" fill="#FEE36F"/>
<path d="M43.4672 39.4737H41.0251V38.9428C41.0251 38.8256 40.9211 38.7303 40.7923 38.7303C40.664 38.7303 40.5596 38.8252 40.5596 38.9428V39.4737H38.1174V2.31252C38.1179 2.19492 38.0139 2.1 37.8856 2.1H8.11439C7.98605 2.1 7.88163 2.19492 7.88163 2.31252V39.4741H5.43949V38.9432C5.43949 38.8261 5.33553 38.7307 5.20673 38.7307C5.07793 38.7307 4.97397 38.8256 4.97397 38.9432V39.4741H2.53275C2.40395 39.4737 2.29999 39.569 2.29999 39.6862C2.29999 39.8034 2.40395 39.8987 2.53275 39.8987H8.11439H10.563C10.5657 39.8987 10.568 39.9 10.5708 39.9H16.9915C16.9942 39.9 16.9965 39.8987 16.9993 39.8987H18.9764H20.2979H25.7016H27.0231H29.0002C29.003 39.8987 29.0053 39.9 29.008 39.9H35.4287C35.4315 39.9 35.4338 39.8987 35.4366 39.8987H37.8851H43.4672C43.5956 39.8987 43.7 39.8038 43.7 39.6862C43.7 39.5686 43.596 39.4737 43.4672 39.4737ZM14.0139 39.4737V34.272H16.7592V39.4737H14.0139ZM16.7592 33.8474H14.0139V28.6444H16.7592V33.8474ZM13.5488 33.8474H10.8035V28.6444H13.5488V33.8474ZM10.8035 34.272H13.5488V39.4737H10.8035V34.272ZM22.7672 39.4737H20.5307V32.172C20.5307 31.0006 21.5146 30.0359 22.7672 29.9284V39.4737ZM23.2327 39.4737V29.9284C24.4853 30.0359 25.4693 31.0006 25.4693 32.172V39.4741L23.2327 39.4737ZM25.9343 39.4737V32.172C25.9343 30.6949 24.6183 29.4932 23 29.4932C21.3817 29.4932 20.0656 30.6949 20.0656 32.172V39.4741H19.2091V32.1052C19.2091 30.1967 20.9097 28.6444 23 28.6444C25.0902 28.6444 26.7908 30.1972 26.7908 32.1052V39.4737H25.9343ZM32.4511 39.4737V34.272H35.1964V39.4737H32.4511ZM35.1964 33.8474H32.4511V28.6444H35.1964V33.8474ZM31.9861 33.8474H29.2408V28.6444H31.9861V33.8474ZM29.2408 34.272H31.9861V39.4737H29.2408V34.272ZM35.6615 39.4737V28.4319C35.6615 28.3147 35.5575 28.2194 35.4287 28.2194H29.0085C28.8802 28.2194 28.7757 28.3143 28.7757 28.4319V39.4737H27.2559V32.1052C27.2559 29.9628 25.3464 28.2194 23 28.2194C20.6535 28.2194 18.7441 29.9624 18.7441 32.1052V39.4737H17.2242V28.4319C17.2242 28.3147 17.1203 28.2194 16.9915 28.2194H10.5712C10.4429 28.2194 10.3385 28.3143 10.3385 28.4319V39.4737H8.34715V2.52462H37.6528V39.4737H35.6615Z" fill="#136296"/>
<path d="M14.8281 4.27812H10.5713C10.4429 4.27812 10.3385 4.37304 10.3385 4.49064V8.3769C10.3385 8.49408 10.4425 8.58942 10.5713 8.58942H14.8281C14.9564 8.58942 15.0609 8.4945 15.0609 8.3769V4.49064C15.0604 4.37304 14.9564 4.27812 14.8281 4.27812ZM14.5953 8.16438H10.8036V4.70274H14.5953V8.16438Z" fill="#136296"/>
<path d="M28.5619 4.27812H24.305C24.1767 4.27812 24.0723 4.37304 24.0723 4.49064V8.3769C24.0723 8.49408 24.1762 8.58942 24.305 8.58942H28.5619C28.6902 8.58942 28.7946 8.4945 28.7946 8.3769V4.49064C28.7946 4.37304 28.6902 4.27812 28.5619 4.27812ZM28.3291 8.16438H24.5378V4.70274H28.3291V8.16438Z" fill="#136296"/>
<path d="M21.695 4.27812H17.4381C17.3098 4.27812 17.2054 4.37304 17.2054 4.49064V8.3769C17.2054 8.49408 17.3093 8.58942 17.4381 8.58942H21.695C21.8233 8.58942 21.9277 8.4945 21.9277 8.3769V4.49064C21.9273 4.37304 21.8233 4.27812 21.695 4.27812ZM21.4622 8.16438H17.6709V4.70274H21.4622V8.16438Z" fill="#136296"/>
<path d="M14.8281 10.0006H10.5713C10.4429 10.0006 10.3385 10.0955 10.3385 10.2131V14.0994C10.3385 14.2166 10.4425 14.3119 10.5713 14.3119H14.8281C14.9564 14.3119 15.0609 14.217 15.0609 14.0994V10.2131C15.0604 10.0955 14.9564 10.0006 14.8281 10.0006ZM14.5953 13.8869H10.8036V10.4252H14.5953V13.8869Z" fill="#136296"/>
<path d="M28.5619 10.0006H24.305C24.1767 10.0006 24.0723 10.0955 24.0723 10.2131V14.0994C24.0723 14.2166 24.1762 14.3119 24.305 14.3119H28.5619C28.6902 14.3119 28.7946 14.217 28.7946 14.0994V10.2131C28.7946 10.0955 28.6902 10.0006 28.5619 10.0006ZM28.3291 13.8869H24.5378V10.4252H28.3291V13.8869Z" fill="#136296"/>
<path d="M21.695 10.0006H17.4381C17.3098 10.0006 17.2054 10.0955 17.2054 10.2131V14.0994C17.2054 14.2166 17.3093 14.3119 17.4381 14.3119H21.695C21.8233 14.3119 21.9277 14.217 21.9277 14.0994V10.2131C21.9273 10.0955 21.8233 10.0006 21.695 10.0006ZM21.4622 13.8869H17.6709V10.4252H21.4622V13.8869Z" fill="#136296"/>
<path d="M14.8281 15.7231H10.5713C10.4429 15.7231 10.3385 15.818 10.3385 15.9356V19.8219C10.3385 19.9391 10.4425 20.0344 10.5713 20.0344H14.8281C14.9564 20.0344 15.0609 19.9395 15.0609 19.8219V15.9356C15.0604 15.818 14.9564 15.7231 14.8281 15.7231ZM14.5953 19.6094H10.8036V16.1477H14.5953V19.6094Z" fill="#136296"/>
<path d="M28.5619 15.7231H24.305C24.1767 15.7231 24.0723 15.818 24.0723 15.9356V19.8219C24.0723 19.9391 24.1762 20.0344 24.305 20.0344H28.5619C28.6902 20.0344 28.7946 19.9395 28.7946 19.8219V15.9356C28.7946 15.818 28.6902 15.7231 28.5619 15.7231ZM28.3291 19.6094H24.5378V16.1477H28.3291V19.6094Z" fill="#136296"/>
<path d="M35.4287 4.27812H31.1719C31.0436 4.27812 30.9391 4.37304 30.9391 4.49064V8.3769C30.9391 8.49408 31.0431 8.58942 31.1719 8.58942H35.4287C35.5571 8.58942 35.6615 8.4945 35.6615 8.3769V4.49064C35.6615 4.37304 35.5575 4.27812 35.4287 4.27812ZM35.1964 8.16438H31.4047V4.70274H35.1964V8.16438Z" fill="#136296"/>
<path d="M35.4287 10.0006H31.1719C31.0436 10.0006 30.9391 10.0955 30.9391 10.2131V14.0994C30.9391 14.2166 31.0431 14.3119 31.1719 14.3119H35.4287C35.5571 14.3119 35.6615 14.217 35.6615 14.0994V10.2131C35.6615 10.0955 35.5575 10.0006 35.4287 10.0006ZM35.1964 13.8869H31.4047V10.4252H35.1964V13.8869Z" fill="#136296"/>
<path d="M35.4287 15.7231H31.1719C31.0436 15.7231 30.9391 15.818 30.9391 15.9356V19.8219C30.9391 19.9391 31.0431 20.0344 31.1719 20.0344H35.4287C35.5571 20.0344 35.6615 19.9395 35.6615 19.8219V15.9356C35.6615 15.818 35.5575 15.7231 35.4287 15.7231ZM35.1964 19.6094H31.4047V16.1477H35.1964V19.6094Z" fill="#136296"/>
<path d="M21.695 15.7231H17.4381C17.3098 15.7231 17.2054 15.818 17.2054 15.9356V19.8219C17.2054 19.9391 17.3093 20.0344 17.4381 20.0344H21.695C21.8233 20.0344 21.9277 19.9395 21.9277 19.8219V15.9356C21.9273 15.818 21.8233 15.7231 21.695 15.7231ZM21.4622 19.6094H17.6709V16.1477H21.4622V19.6094Z" fill="#136296"/>
<path d="M14.8281 21.4456H10.5713C10.4429 21.4456 10.3385 21.5405 10.3385 21.6581V25.5444C10.3385 25.6616 10.4425 25.7569 10.5713 25.7569H14.8281C14.9564 25.7569 15.0609 25.662 15.0609 25.5444V21.6581C15.0604 21.5405 14.9564 21.4456 14.8281 21.4456ZM14.5953 25.3323H10.8036V21.8707H14.5953V25.3323Z" fill="#136296"/>
<path d="M28.5619 21.4456H24.305C24.1767 21.4456 24.0723 21.5405 24.0723 21.6581V25.5444C24.0723 25.6616 24.1762 25.7569 24.305 25.7569H28.5619C28.6902 25.7569 28.7946 25.662 28.7946 25.5444V21.6581C28.7946 21.5405 28.6902 21.4456 28.5619 21.4456ZM28.3291 25.3323H24.5378V21.8707H28.3291V25.3323Z" fill="#136296"/>
<path d="M35.4287 21.4456H31.1719C31.0436 21.4456 30.9391 21.5405 30.9391 21.6581V25.5444C30.9391 25.6616 31.0431 25.7569 31.1719 25.7569H35.4287C35.5571 25.7569 35.6615 25.662 35.6615 25.5444V21.6581C35.6615 21.5405 35.5575 21.4456 35.4287 21.4456ZM35.1964 25.3323H31.4047V21.8707H35.1964V25.3323Z" fill="#136296"/>
<path d="M21.695 21.4456H17.4381C17.3098 21.4456 17.2054 21.5405 17.2054 21.6581V25.5444C17.2054 25.6616 17.3093 25.7569 17.4381 25.7569H21.695C21.8233 25.7569 21.9277 25.662 21.9277 25.5444V21.6581C21.9273 21.5405 21.8233 21.4456 21.695 21.4456ZM21.4622 25.3323H17.6709V21.8707H21.4622V25.3323Z" fill="#136296"/>
<path d="M5.20719 24.1773C5.07885 24.1773 4.97443 24.2722 4.97443 24.3898V25.8451C4.97443 25.9623 5.07839 26.0576 5.20719 26.0576C5.33599 26.0576 5.43995 25.9627 5.43995 25.8451V24.3898C5.43995 24.2722 5.33599 24.1773 5.20719 24.1773Z" fill="#136296"/>
<path d="M5.20719 27.0879C5.07885 27.0879 4.97443 27.1828 4.97443 27.3004V28.7557C4.97443 28.8729 5.07839 28.9682 5.20719 28.9682C5.33599 28.9682 5.43995 28.8733 5.43995 28.7557V27.3C5.43995 27.1828 5.33599 27.0879 5.20719 27.0879Z" fill="#136296"/>
<path d="M5.20719 35.8201C5.07885 35.8201 4.97443 35.915 4.97443 36.0326V37.4879C4.97443 37.6051 5.07839 37.7005 5.20719 37.7005C5.33599 37.7005 5.43995 37.6055 5.43995 37.4879V36.0326C5.43995 35.915 5.33599 35.8201 5.20719 35.8201Z" fill="#136296"/>
<path d="M5.20719 32.9091C5.07885 32.9091 4.97443 33.004 4.97443 33.1216V34.5769C4.97443 34.6941 5.07839 34.7894 5.20719 34.7894C5.33599 34.7894 5.43995 34.6945 5.43995 34.5769V33.1216C5.43995 33.0044 5.33599 32.9091 5.20719 32.9091Z" fill="#136296"/>
<path d="M5.20719 29.9985C5.07885 29.9985 4.97443 30.0934 4.97443 30.211V31.6663C4.97443 31.7835 5.07839 31.8788 5.20719 31.8788C5.33599 31.8788 5.43995 31.7839 5.43995 31.6663V30.211C5.43995 30.0938 5.33599 29.9985 5.20719 29.9985Z" fill="#136296"/>
<path d="M5.20719 21.9786C5.07885 21.9786 4.97443 22.0735 4.97443 22.1911V22.9345C4.97443 23.0517 5.07839 23.147 5.20719 23.147C5.33599 23.147 5.43995 23.0521 5.43995 22.9345V22.1911C5.43995 22.0735 5.33599 21.9786 5.20719 21.9786Z" fill="#136296"/>
<path d="M40.7928 27.0879C40.6645 27.0879 40.5601 27.1828 40.5601 27.3004V28.7557C40.5601 28.8729 40.664 28.9682 40.7928 28.9682C40.9212 28.9682 41.0256 28.8733 41.0256 28.7557V27.3C41.0251 27.1828 40.9212 27.0879 40.7928 27.0879Z" fill="#136296"/>
<path d="M40.7928 29.9985C40.6645 29.9985 40.5601 30.0934 40.5601 30.211V31.6663C40.5601 31.7835 40.664 31.8788 40.7928 31.8788C40.9212 31.8788 41.0256 31.7839 41.0256 31.6663V30.211C41.0251 30.0938 40.9212 29.9985 40.7928 29.9985Z" fill="#136296"/>
<path d="M40.7928 24.1773C40.6645 24.1773 40.5601 24.2722 40.5601 24.3898V25.8451C40.5601 25.9623 40.664 26.0576 40.7928 26.0576C40.9212 26.0576 41.0256 25.9627 41.0256 25.8451V24.3898C41.0251 24.2722 40.9212 24.1773 40.7928 24.1773Z" fill="#136296"/>
<path d="M40.7928 32.9091C40.6645 32.9091 40.5601 33.004 40.5601 33.1216V34.5769C40.5601 34.6941 40.664 34.7894 40.7928 34.7894C40.9212 34.7894 41.0256 34.6945 41.0256 34.5769V33.1216C41.0251 33.0044 40.9212 32.9091 40.7928 32.9091Z" fill="#136296"/>
<path d="M40.7928 35.8201C40.6645 35.8201 40.5601 35.915 40.5601 36.0326V37.4879C40.5601 37.6051 40.664 37.7005 40.7928 37.7005C40.9212 37.7005 41.0256 37.6055 41.0256 37.4879V36.0326C41.0251 35.915 40.9212 35.8201 40.7928 35.8201Z" fill="#136296"/>
<path d="M40.7928 21.9786C40.6645 21.9786 40.5601 22.0735 40.5601 22.1911V22.9345C40.5601 23.0517 40.664 23.147 40.7928 23.147C40.9212 23.147 41.0256 23.0521 41.0256 22.9345V22.1911C41.0251 22.0735 40.9212 21.9786 40.7928 21.9786Z" fill="#136296"/>
</svg>
