<svg width="46" height="42" viewBox="0 0 46 42" fill="none" xmlns="http://www.w3.org/2000/svg">
<path d="M37.1968 0.739105H9.10065C6.32382 0.739105 4.073 2.78201 4.073 5.30188V32.7211C4.073 35.2409 6.32382 37.2838 9.10065 37.2838H37.1968C39.9736 37.2838 42.2244 35.2409 42.2244 32.7211V5.30188C42.2244 2.78201 39.9736 0.739105 37.1968 0.739105Z" fill="#F0566F"/>
<path d="M2.41733 9.41741C1.47373 9.41741 0.709167 10.1113 0.709167 10.9678V16.3215C0.709167 17.178 1.47423 17.8719 2.41733 17.8719H4.07304V9.41741H2.41733Z" fill="#FEE36F"/>
<path d="M43.8801 9.41741C44.8237 9.41741 45.5882 10.1113 45.5882 10.9678V16.3215C45.5882 17.178 44.8232 17.8719 43.8801 17.8719H42.2244V9.41741H43.8801Z" fill="#FEE36F"/>
<path d="M35.76 10.2903H10.8562C9.45168 10.2903 8.31342 11.3235 8.31342 12.5983V24.5261C8.31342 25.8005 9.45168 26.834 10.8562 26.834H35.7605C37.165 26.834 38.3033 25.8009 38.3033 24.5261V12.5978C38.3033 11.3235 37.1645 10.2903 35.76 10.2903Z" fill="#DE3D5D"/>
<path d="M35.6005 9.41741H10.6968C9.2922 9.41741 8.15393 10.4505 8.15393 11.7253V23.6532C8.15393 24.9275 9.2922 25.9611 10.6968 25.9611H35.6005C37.005 25.9611 38.1433 24.928 38.1433 23.6532V11.7253C38.1433 10.451 37.005 9.41741 35.6005 9.41741Z" fill="#6AC9CC"/>
<path d="M35.6257 34.3232C37.0164 34.3232 38.1438 33.2999 38.1438 32.0377C38.1438 30.7754 37.0164 29.7522 35.6257 29.7522C34.235 29.7522 33.1076 30.7754 33.1076 32.0377C33.1076 33.2999 34.235 34.3232 35.6257 34.3232Z" fill="#DE3D5D"/>
<path d="M10.6716 34.3232C12.0623 34.3232 13.1897 33.2999 13.1897 32.0377C13.1897 30.7754 12.0623 29.7522 10.6716 29.7522C9.2809 29.7522 8.1535 30.7754 8.1535 32.0377C8.1535 33.2999 9.2809 34.3232 10.6716 34.3232Z" fill="#DE3D5D"/>
<path d="M35.6257 33.8027C37.0164 33.8027 38.1438 32.7795 38.1438 31.5172C38.1438 30.255 37.0164 29.2317 35.6257 29.2317C34.235 29.2317 33.1076 30.255 33.1076 31.5172C33.1076 32.7795 34.235 33.8027 35.6257 33.8027Z" fill="white"/>
<path d="M10.6716 33.8027C12.0623 33.8027 13.1897 32.7795 13.1897 31.5172C13.1897 30.255 12.0623 29.2317 10.6716 29.2317C9.2809 29.2317 8.1535 30.255 8.1535 31.5172C8.1535 32.7795 9.2809 33.8027 10.6716 33.8027Z" fill="white"/>
<path d="M9.10071 37.2843V39.849C9.10071 40.7443 9.90007 41.4699 10.8865 41.4699H13.9039C14.8904 41.4699 15.6898 40.7443 15.6898 39.849V37.2843H9.10071Z" fill="#2E98D5"/>
<path d="M31.5543 37.2843V39.849C31.5543 40.7443 32.3537 41.4699 33.3401 41.4699H36.3575C37.344 41.4699 38.1434 40.7443 38.1434 39.849V37.2843H31.5543Z" fill="#2E98D5"/>
<path d="M32.5483 7.26464H13.749C12.7439 7.26464 11.9218 6.51852 11.9218 5.60624C11.9218 4.69396 12.7439 3.94784 13.749 3.94784H32.5478C33.553 3.94784 34.375 4.69396 34.375 5.60624C34.3755 6.51852 33.553 7.26464 32.5483 7.26464Z" fill="#DE3D5D"/>
<path d="M32.5483 6.73687H13.749C12.7439 6.73687 11.9218 5.99075 11.9218 5.07847C11.9218 4.16619 12.7439 3.42007 13.749 3.42007H32.5478C33.553 3.42007 34.375 4.16619 34.375 5.07847C34.3755 5.9903 33.553 6.73687 32.5483 6.73687Z" fill="white"/>
<path d="M27.2044 9.41741L9.3587 25.6132C9.74754 25.8325 10.205 25.9611 10.6962 25.9611H16.0678L34.2967 9.41741H27.2044Z" fill="#9FDADF"/>
<path d="M17.2873 9.41741L8.15393 17.7071V23.6536C8.15393 23.8065 8.17108 23.9553 8.20235 24.0999L24.3797 9.41787L17.2873 9.41741Z" fill="#9FDADF"/>
<path d="M35.6252 29.0001C34.0961 29.0001 32.8519 30.1289 32.8519 31.5167C32.8519 32.9046 34.0961 34.0334 35.6252 34.0334C37.1544 34.0334 38.3985 32.9046 38.3985 31.5167C38.3985 30.1289 37.1544 29.0001 35.6252 29.0001ZM35.6252 33.5711C34.3775 33.5711 33.3623 32.6496 33.3623 31.5172C33.3623 30.3847 34.3775 29.4633 35.6252 29.4633C36.8729 29.4633 37.8882 30.3847 37.8882 31.5172C37.8887 32.6496 36.8734 33.5711 35.6252 33.5711Z" fill="#136296"/>
<path d="M13.445 31.5172C13.445 30.1293 12.2008 29.0005 10.6717 29.0005C9.14256 29.0005 7.89838 30.1293 7.89838 31.5172C7.89838 32.9051 9.14256 34.0339 10.6717 34.0339C12.2008 34.0339 13.445 32.9046 13.445 31.5172ZM8.40876 31.5172C8.40876 30.3847 9.42397 29.4633 10.6717 29.4633C11.9194 29.4633 12.9346 30.3847 12.9346 31.5172C12.9346 32.6496 11.9194 33.5711 10.6717 33.5711C9.42397 33.5711 8.40876 32.6496 8.40876 31.5172Z" fill="#136296"/>
<path d="M38.3986 39.849V37.3854C40.7336 36.8897 42.4791 34.9892 42.4791 32.7211V18.104H43.8796C44.9624 18.104 45.843 17.3048 45.843 16.322V10.9678C45.843 9.98547 44.9624 9.18579 43.8796 9.18579H42.4791V5.30185C42.4791 2.65839 40.1093 0.507462 37.1963 0.507462H9.10013C6.18712 0.507462 3.81729 2.65839 3.81729 5.30185V9.18579H2.41727C1.33448 9.18625 0.453918 9.98547 0.453918 10.9678V16.322C0.453918 17.3043 1.33448 18.104 2.41727 18.104H3.81829V32.7215C3.81829 35.2872 6.05197 37.3822 8.84595 37.504V39.849C8.84595 40.4024 9.11627 40.8986 9.54192 41.2383H0.709109C0.567897 41.2383 0.453918 41.3422 0.453918 41.4699C0.453918 41.5976 0.567897 41.7015 0.709109 41.7015H10.887H13.9044H33.3407H36.3581H45.5888C45.7295 41.7015 45.844 41.598 45.844 41.4699C45.844 41.3417 45.73 41.2383 45.5888 41.2383H37.7031C38.1283 40.8986 38.3986 40.4024 38.3986 39.849ZM43.8801 9.64903C44.6815 9.64903 45.3336 10.2409 45.3336 10.9682V16.322C45.3336 17.0493 44.6815 17.6407 43.8801 17.6407H42.4796V9.64857H43.8801V9.64903ZM2.41727 17.6407C1.61589 17.6407 0.963795 17.0489 0.963795 16.322V10.9678C0.963795 10.2404 1.61589 9.64903 2.41727 9.64903H3.81829V17.6412L2.41727 17.6407ZM4.32817 32.7215V17.8724V9.41741V5.30185C4.32817 2.91335 6.46905 0.970239 9.10063 0.970239H37.1968C39.8284 0.970239 41.9697 2.91335 41.9697 5.30185V9.41741V17.8724V32.7215C41.9697 35.11 39.8289 37.0531 37.1968 37.0531H31.5543H15.6902H9.10063C6.46905 37.0527 4.32817 35.1095 4.32817 32.7215ZM15.9449 37.5154H31.2992V39.849C31.2992 40.4024 31.5695 40.8986 31.9951 41.2383H15.2494C15.6751 40.8986 15.9454 40.4024 15.9454 39.849L15.9449 37.5154ZM9.35582 39.849V37.5154H15.435V39.849C15.435 40.6153 14.7481 41.2383 13.9039 41.2383H10.8865C10.0427 41.2383 9.35582 40.6153 9.35582 39.849ZM33.3402 41.2383C32.4959 41.2383 31.809 40.6148 31.809 39.849V37.5154H37.1963H37.8882V39.849C37.8882 40.6153 37.2013 41.2383 36.3576 41.2383H33.3402Z" fill="#136296"/>
<path d="M13.7495 6.96804H32.5484C33.6967 6.96804 34.6308 6.1203 34.6308 5.07802C34.6308 4.03574 33.6967 3.188 32.5484 3.188H13.7495C12.6012 3.188 11.6672 4.03574 11.6672 5.07802C11.6672 6.1203 12.6012 6.96804 13.7495 6.96804ZM13.7495 3.65124H32.5484C33.4153 3.65124 34.1209 4.29116 34.1209 5.07848C34.1209 5.86579 33.4153 6.50572 32.5484 6.50572H13.7495C12.8826 6.50572 12.1771 5.86579 12.1771 5.07848C12.1771 4.29116 12.8821 3.65124 13.7495 3.65124Z" fill="#136296"/>
<path d="M15.7113 32.4716H15.0738C14.9331 32.4716 14.8186 32.5751 14.8186 32.7032C14.8186 32.8314 14.9326 32.9348 15.0738 32.9348H15.7113C15.852 32.9348 15.9665 32.8314 15.9665 32.7032C15.9665 32.5751 15.852 32.4716 15.7113 32.4716Z" fill="#136296"/>
<path d="M21.1203 32.4716H19.7682C19.6275 32.4716 19.513 32.5751 19.513 32.7032C19.513 32.8314 19.627 32.9348 19.7682 32.9348H21.1203C21.261 32.9348 21.3755 32.8314 21.3755 32.7032C21.3755 32.5751 21.261 32.4716 21.1203 32.4716Z" fill="#136296"/>
<path d="M18.4155 32.4716H17.0634C16.9227 32.4716 16.8082 32.5751 16.8082 32.7032C16.8082 32.8314 16.9222 32.9348 17.0634 32.9348H18.4155C18.5562 32.9348 18.6707 32.8314 18.6707 32.7032C18.6707 32.5751 18.5567 32.4716 18.4155 32.4716Z" fill="#136296"/>
<path d="M26.5292 32.4716H25.1771C25.0364 32.4716 24.9219 32.5751 24.9219 32.7032C24.9219 32.8314 25.0359 32.9348 25.1771 32.9348H26.5292C26.6699 32.9348 26.7844 32.8314 26.7844 32.7032C26.7844 32.5751 26.6699 32.4716 26.5292 32.4716Z" fill="#136296"/>
<path d="M23.8249 32.4716H22.4728C22.3321 32.4716 22.2177 32.5751 22.2177 32.7032C22.2177 32.8314 22.3316 32.9348 22.4728 32.9348H23.8249C23.9657 32.9348 24.0801 32.8314 24.0801 32.7032C24.0801 32.5751 23.9657 32.4716 23.8249 32.4716Z" fill="#136296"/>
<path d="M29.2339 32.4716H27.8818C27.7411 32.4716 27.6266 32.5751 27.6266 32.7032C27.6266 32.8314 27.7406 32.9348 27.8818 32.9348H29.2339C29.3746 32.9348 29.4891 32.8314 29.4891 32.7032C29.4891 32.5751 29.3746 32.4716 29.2339 32.4716Z" fill="#136296"/>
<path d="M31.2235 32.4716H30.586C30.4453 32.4716 30.3308 32.5751 30.3308 32.7032C30.3308 32.8314 30.4448 32.9348 30.586 32.9348H31.2235C31.3642 32.9348 31.4787 32.8314 31.4787 32.7032C31.4787 32.5751 31.3642 32.4716 31.2235 32.4716Z" fill="#136296"/>
<path d="M31.2234 30.0996H15.0738C14.9331 30.0996 14.8186 30.203 14.8186 30.3312C14.8186 30.4589 14.9326 30.5628 15.0738 30.5628H31.2234C31.3641 30.5628 31.4786 30.4594 31.4786 30.3312C31.4786 30.203 31.3641 30.0996 31.2234 30.0996Z" fill="#136296"/>
<path d="M10.6969 26.1927H35.6006C37.1434 26.1927 38.3986 25.0534 38.3986 23.6532V11.7253C38.3986 10.3251 37.1434 9.18625 35.6006 9.18625H10.6969C9.15414 9.18625 7.89886 10.3251 7.89886 11.7253V23.6532C7.89886 25.0534 9.15414 26.1927 10.6969 26.1927ZM8.40874 11.7253C8.40874 10.5805 9.43505 9.64903 10.6964 9.64903H35.6006C36.8619 9.64903 37.8883 10.5805 37.8883 11.7253V23.6532C37.8883 24.798 36.8619 25.7295 35.6006 25.7295H10.6969C9.43555 25.7295 8.40925 24.798 8.40925 23.6532L8.40874 11.7253Z" fill="#136296"/>
</svg>
