<svg width="56" height="43" viewBox="0 0 56 43" fill="none" xmlns="http://www.w3.org/2000/svg">
<path fill-rule="evenodd" clip-rule="evenodd" d="M52.472 21.758L50.232 19.393C53.088 15.222 54.992 9.20199 46.032 9.84699C45.696 7.65399 43.456 3.65499 40.656 2.70899C37.296 1.59099 34.216 3.65499 31.808 5.15999C30.688 4.12799 28.28 2.10699 26.376 1.97799C22.456 -0.774007 18.648 3.48299 17.136 5.89099C8.40001 4.29999 4.42402 8.34199 7.84001 14.663C5.26402 15.394 0.336015 17.114 1.68001 19.823C1.79201 20.253 1.96001 20.683 2.24001 21.07C2.85601 22.102 3.86401 22.962 5.15201 23.564C6.10401 24.295 7.16802 25.026 8.12002 25.628C7.89602 26.273 7.33602 27.004 7.28001 27.735C6.55202 29.24 5.88001 30.745 5.15201 32.25L14.056 32.637C14.336 32.852 14.56 33.067 14.896 33.282C14.672 35.432 11.872 40.119 16.52 40.635C17.92 40.807 18.592 40.248 19.6 39.646C20.496 39.087 21.448 38.571 22.456 38.141C23.408 37.711 24.416 37.41 25.424 37.195L32.312 41.366C33.152 40.592 33.992 39.861 34.832 39.087C36.008 38.399 36.792 37.41 37.072 36.292C37.072 36.292 37.128 36.292 37.128 36.249C39.536 36.378 42.336 38.055 44.632 37.453C45.192 37.324 45.64 37.066 46.032 36.765C47.936 35.346 47.992 32.508 46.48 29.584C48.944 29.154 51.184 28.294 53.088 27.047C54.096 26.359 54.376 25.972 54.488 25.542C54.6 25.241 54.936 24.338 52.472 21.758Z" fill="#FDB913"/>
<path d="M50.848 21.758C50.12 21.027 49.504 20.296 48.888 19.608C50.848 17.63 52.192 15.308 52.808 12.857C52.864 12.513 52.64 12.212 52.192 12.126C50.456 11.825 48.72 11.524 46.928 11.266C45.584 11.051 44.296 10.836 43.008 10.664C43.064 10.148 43.12 9.54599 43.12 8.94399C43.12 8.34199 43.064 7.73999 43.008 7.09499C42.84 5.67599 42.448 4.25699 41.888 2.83799C41.776 2.49399 41.328 2.32199 40.88 2.45099C40.88 2.45099 40.88 2.45099 40.824 2.45099C38.976 2.96699 37.128 3.65499 35.448 4.42899C34.104 5.03099 32.816 5.71899 31.64 6.44999C30.744 5.76199 29.792 5.11699 28.728 4.38599C27.216 3.39699 25.704 2.49399 24.304 1.67699C23.968 1.46199 23.464 1.54799 23.184 1.80599C23.184 1.80599 23.184 1.80599 23.184 1.84899C22.12 3.00999 21.168 4.25699 20.16 5.50399C19.544 6.32099 18.928 7.09499 18.312 7.91199C16.968 7.78299 15.568 7.65399 14.056 7.56799C12.264 7.48199 10.64 7.43899 9.07196 7.43899H8.90396C8.45596 7.43899 8.11996 7.69699 8.11996 8.04099C8.11996 8.08399 8.11996 8.08399 8.11996 8.12699C8.34396 9.45999 8.67996 10.879 9.12796 12.427C9.46396 13.502 9.79996 14.534 10.192 15.523C9.07196 16.039 8.00796 16.555 6.88796 17.114C5.31996 17.845 3.86396 18.619 2.35196 19.35C1.95996 19.522 1.90396 19.909 2.12796 20.21C2.12796 20.21 2.12796 20.253 2.18396 20.253C3.24796 21.328 4.36796 22.36 5.59996 23.306C6.66396 24.166 7.72796 24.94 8.73596 25.628C8.28796 26.574 7.72796 27.563 7.11196 28.552C6.32796 29.885 5.48796 31.089 4.70396 32.207C4.47996 32.508 4.64796 32.895 4.98396 33.067C5.09596 33.11 5.26396 33.153 5.43196 33.153C5.99196 33.153 6.60796 33.11 7.22396 33.11C8.23196 33.11 9.29596 33.153 10.416 33.196C11.76 33.282 12.992 33.411 14.112 33.54C14.336 34.572 14.56 35.647 14.728 36.765C14.952 38.227 15.12 39.603 15.176 40.893C15.176 41.237 15.568 41.495 16.016 41.452C16.128 41.452 16.24 41.409 16.352 41.366C17.92 40.721 19.544 40.033 21.224 39.259C22.68 38.614 24.024 37.969 25.368 37.324C26.152 37.797 26.992 38.27 27.832 38.829C29.4 39.818 30.8 40.85 32.088 41.796C32.424 42.054 32.928 42.054 33.208 41.796L33.264 41.753C35.112 40.119 36.904 38.442 38.752 36.808L47.376 37.969C47.824 38.012 48.216 37.797 48.328 37.453C48.328 37.367 48.328 37.281 48.328 37.195C47.936 35.776 47.656 34.357 47.488 32.938C47.432 32.121 47.376 31.347 47.376 30.616C47.376 30.444 47.376 30.315 47.376 30.143C48.384 29.584 49.448 29.025 50.512 28.337C51.912 27.52 53.144 26.66 54.264 25.886C54.6 25.671 54.6 25.284 54.32 25.026C53.2 24.037 52.024 22.962 50.848 21.758ZM49.504 27.391C48.328 28.079 47.208 28.724 46.088 29.326C45.864 29.455 45.752 29.627 45.752 29.799C45.752 30.057 45.752 30.315 45.752 30.616C45.752 31.39 45.808 32.164 45.864 33.024C45.976 34.228 46.2 35.389 46.48 36.593L38.528 35.518C38.248 35.475 37.968 35.561 37.8 35.733C36.064 37.281 34.328 38.872 32.536 40.42C31.416 39.56 30.184 38.7 28.84 37.84C27.832 37.195 26.824 36.593 25.872 36.034C25.592 35.862 25.256 35.862 24.976 35.991C23.52 36.722 22.008 37.41 20.384 38.141C19.096 38.7 17.864 39.259 16.632 39.775C16.52 38.743 16.408 37.668 16.24 36.507C16.016 35.217 15.792 33.97 15.568 32.809C15.512 32.551 15.232 32.336 14.896 32.293C13.44 32.078 11.928 31.949 10.472 31.863C9.29596 31.777 8.17596 31.777 7.11196 31.777C6.94396 31.777 6.83196 31.777 6.66396 31.777C7.27996 30.917 7.89596 29.971 8.45596 28.982C9.18396 27.821 9.79996 26.66 10.304 25.585C10.416 25.327 10.304 25.069 10.08 24.897C8.90396 24.08 7.72796 23.22 6.66396 22.36C5.59996 21.5 4.70396 20.683 3.86396 19.909C5.09596 19.307 6.32796 18.662 7.61596 18.06C8.90396 17.458 10.192 16.856 11.48 16.254C11.816 16.125 11.928 15.824 11.816 15.566C11.368 14.491 10.976 13.33 10.64 12.126C10.304 10.922 10.024 9.76099 9.79996 8.64299C11.088 8.64299 12.488 8.68599 13.944 8.77199C15.624 8.85799 17.192 9.02999 18.648 9.15899C18.984 9.20199 19.32 9.07299 19.488 8.85799C20.16 7.95499 20.832 7.05199 21.56 6.10599C22.4 5.07399 23.184 4.04199 24.024 3.05299C25.2 3.74099 26.432 4.47199 27.664 5.28899C28.896 6.10599 30.016 6.87999 31.024 7.65399C31.304 7.86899 31.808 7.91199 32.088 7.69699C34.608 6.06299 37.52 4.72999 40.6 3.78399C40.992 4.90199 41.272 6.01999 41.384 7.13799C41.44 7.73999 41.496 8.34199 41.496 8.90099C41.496 9.63199 41.44 10.363 41.328 11.051C41.272 11.352 41.552 11.653 42 11.739C43.512 11.954 45.08 12.212 46.648 12.427C48.16 12.685 49.616 12.9 51.072 13.158C50.4 15.351 49.112 17.372 47.264 19.135C47.04 19.35 47.04 19.651 47.208 19.866C47.936 20.683 48.72 21.543 49.56 22.446C50.568 23.478 51.632 24.467 52.64 25.327C51.632 26.058 50.624 26.703 49.504 27.391Z" fill="black"/>
<path d="M20.4399 26.617C19.5439 26.789 17.2479 27.864 16.7439 26.66C16.1839 25.413 18.5359 25.069 19.5439 25.112C20.7759 25.155 20.7759 23.65 19.5439 23.65C17.9759 23.607 16.4079 23.908 15.4559 24.94C14.6159 25.8 14.5599 26.961 15.3439 27.821C16.1839 28.767 17.6959 28.853 18.9839 28.552C19.4879 28.466 19.9359 28.251 20.4399 28.165C21.2799 28.036 22.9039 28.165 22.2319 29.154C21.6159 30.057 19.9359 30.014 18.8159 29.971C17.5839 29.928 17.5839 31.39 18.8159 31.433C20.4399 31.519 22.1199 31.347 23.3519 30.444C24.3599 29.713 24.6399 28.552 23.9679 27.563C23.2399 26.574 21.7839 26.359 20.4399 26.617Z" fill="black"/>
<path d="M27.1039 21.758C26.1519 21.285 24.2479 20.124 23.0159 20.683C21.8399 21.242 22.3999 22.618 22.7919 23.392C23.6319 24.94 24.6399 26.402 25.7039 27.864C26.3199 28.681 27.9999 27.95 27.3839 27.133C27.0479 26.703 26.7119 26.23 26.4319 25.757C27.1039 25.284 27.8319 24.811 28.5599 24.381C29.1199 24.725 29.6799 25.112 30.2399 25.499C31.1359 26.144 32.4799 25.112 31.5839 24.467C30.2399 23.435 28.7279 22.532 27.1039 21.758ZM24.4719 22.317C25.1999 22.403 26.2639 23.048 26.9919 23.478C26.4879 23.779 26.0399 24.08 25.5359 24.424C25.3119 24.123 25.1439 23.822 24.9759 23.478C24.7519 23.134 24.5839 22.79 24.4159 22.403C24.1359 22.188 24.1919 22.145 24.4719 22.317Z" fill="black"/>
<path d="M36.344 21.457C35.56 21.844 34.776 22.231 34.048 22.661C32.424 21.242 30.912 19.737 29.568 18.146C28.896 17.329 27.216 18.103 27.888 18.877C29.456 20.726 31.248 22.489 33.208 24.123C33.6 24.381 34.216 24.381 34.552 24.123C35.448 23.607 36.344 23.134 37.296 22.704C38.36 22.231 37.408 20.941 36.344 21.457Z" fill="black"/>
<path d="M41.4399 18.06C40.5439 18.533 39.6479 19.006 38.8079 19.522L38.6959 19.565C38.6399 19.522 38.5839 19.479 38.5279 19.436C38.4719 19.221 37.9679 18.877 37.7999 18.748C37.5759 18.533 37.3519 18.318 37.1279 18.146L39.5359 16.555C40.4879 15.953 39.0879 14.878 38.1919 15.523L35.8959 17.028C35.3919 16.598 34.8879 16.211 34.3839 15.824C35.1119 15.265 35.9519 14.792 36.8479 14.362C37.9119 13.846 36.9599 12.599 35.8959 13.072C34.6079 13.674 33.4319 14.405 32.4239 15.265C32.3119 15.351 32.1999 15.523 32.1439 15.652C32.0319 15.91 32.0879 16.211 32.3679 16.383C33.3759 17.157 34.3839 17.931 35.2799 18.748C36.0639 19.436 36.6799 20.425 37.5759 21.027C39.0319 21.973 41.2159 20.038 42.3359 19.393C43.3999 18.791 42.4479 17.501 41.4399 18.06Z" fill="black"/>
</svg>
